G04 #@! TF.GenerationSoftware,KiCad,Pcbnew,9.0.2*
G04 #@! TF.CreationDate,2026-02-04T16:46:47-05:00*
G04 #@! TF.ProjectId,PocketStockV2,506f636b-6574-4537-946f-636b56322e6b,rev?*
G04 #@! TF.SameCoordinates,Original*
G04 #@! TF.FileFunction,Copper,L4,Bot*
G04 #@! TF.FilePolarity,Positive*
%FSLAX46Y46*%
G04 Gerber Fmt 4.6, Leading zero omitted, Abs format (unit mm)*
G04 Created by KiCad (PCBNEW 9.0.2) date 2026-02-04 16:46:47*
%MOMM*%
%LPD*%
G01*
G04 APERTURE LIST*
G04 #@! TA.AperFunction,ComponentPad*
%ADD10R,1.600000X1.600000*%
G04 #@! TD*
G04 #@! TA.AperFunction,ComponentPad*
%ADD11C,1.600000*%
G04 #@! TD*
G04 #@! TA.AperFunction,ComponentPad*
%ADD12C,2.000000*%
G04 #@! TD*
G04 #@! TA.AperFunction,ViaPad*
%ADD13C,0.600000*%
G04 #@! TD*
G04 #@! TA.AperFunction,Conductor*
%ADD14C,0.200000*%
G04 #@! TD*
G04 APERTURE END LIST*
D10*
X161290000Y-87630000D03*
D11*
X163830000Y-87630000D03*
X166370000Y-87630000D03*
X168910000Y-87630000D03*
D12*
X157910000Y-120550000D03*
X151410000Y-120550000D03*
X157910000Y-116050000D03*
X151410000Y-116050000D03*
X177910000Y-120500000D03*
X171410000Y-120500000D03*
X177910000Y-116000000D03*
X171410000Y-116000000D03*
X167910000Y-120500000D03*
X161410000Y-120500000D03*
X167910000Y-116000000D03*
X161410000Y-116000000D03*
D10*
X172720000Y-87630000D03*
D11*
X172720000Y-90170000D03*
X172720000Y-92710000D03*
X172720000Y-95250000D03*
X172720000Y-97790000D03*
X172720000Y-100330000D03*
X172720000Y-102870000D03*
X172720000Y-105410000D03*
X157480000Y-87630000D03*
X157480000Y-90170000D03*
X157480000Y-92710000D03*
X157480000Y-95250000D03*
X157480000Y-97790000D03*
X157480000Y-100330000D03*
X157480000Y-102870000D03*
X157480000Y-105410000D03*
D13*
X166400000Y-89500000D03*
X176900000Y-95300000D03*
D14*
X166400000Y-89500000D02*
X170850000Y-89500000D01*
X170850000Y-89500000D02*
X172720000Y-87630000D01*
X176350000Y-95250000D02*
X172720000Y-95250000D01*
X176400000Y-95300000D02*
X176350000Y-95250000D01*
X176900000Y-95300000D02*
X176400000Y-95300000D01*
G04 #@! TA.AperFunction,Conductor*
G36*
X179692539Y-84520185D02*
G01*
X179738294Y-84572989D01*
X179749500Y-84624500D01*
X179749500Y-123375500D01*
X179729815Y-123442539D01*
X179677011Y-123488294D01*
X179625500Y-123499500D01*
X149874500Y-123499500D01*
X149807461Y-123479815D01*
X149761706Y-123427011D01*
X149750500Y-123375500D01*
X149750500Y-121079589D01*
X149770185Y-121012550D01*
X149822989Y-120966795D01*
X149892147Y-120956851D01*
X149955703Y-120985876D01*
X149992431Y-121041271D01*
X150019897Y-121125802D01*
X150127087Y-121336174D01*
X150187338Y-121419104D01*
X150187340Y-121419105D01*
X150886212Y-120720233D01*
X150897482Y-120762292D01*
X150969890Y-120887708D01*
X151072292Y-120990110D01*
X151197708Y-121062518D01*
X151239765Y-121073787D01*
X150540893Y-121772658D01*
X150623828Y-121832914D01*
X150834197Y-121940102D01*
X151058752Y-122013065D01*
X151058751Y-122013065D01*
X151291948Y-122050000D01*
X151528052Y-122050000D01*
X151761247Y-122013065D01*
X151985802Y-121940102D01*
X152196163Y-121832918D01*
X152196169Y-121832914D01*
X152279104Y-121772658D01*
X152279105Y-121772658D01*
X151580233Y-121073787D01*
X151622292Y-121062518D01*
X151747708Y-120990110D01*
X151850110Y-120887708D01*
X151922518Y-120762292D01*
X151933787Y-120720233D01*
X152632658Y-121419105D01*
X152632658Y-121419104D01*
X152692914Y-121336169D01*
X152692918Y-121336163D01*
X152800102Y-121125802D01*
X152873065Y-120901247D01*
X152910000Y-120668052D01*
X152910000Y-120431947D01*
X156410000Y-120431947D01*
X156410000Y-120668052D01*
X156446934Y-120901247D01*
X156519897Y-121125802D01*
X156627087Y-121336174D01*
X156687338Y-121419104D01*
X156687340Y-121419105D01*
X157386212Y-120720233D01*
X157397482Y-120762292D01*
X157469890Y-120887708D01*
X157572292Y-120990110D01*
X157697708Y-121062518D01*
X157739765Y-121073787D01*
X157040893Y-121772658D01*
X157123828Y-121832914D01*
X157334197Y-121940102D01*
X157558752Y-122013065D01*
X157558751Y-122013065D01*
X157791948Y-122050000D01*
X158028052Y-122050000D01*
X158261247Y-122013065D01*
X158485802Y-121940102D01*
X158696163Y-121832918D01*
X158696169Y-121832914D01*
X158779104Y-121772658D01*
X158779105Y-121772658D01*
X158769527Y-121763080D01*
X158080233Y-121073787D01*
X158122292Y-121062518D01*
X158247708Y-120990110D01*
X158350110Y-120887708D01*
X158422518Y-120762292D01*
X158433787Y-120720234D01*
X159132658Y-121419105D01*
X159132658Y-121419104D01*
X159192914Y-121336169D01*
X159192918Y-121336163D01*
X159300102Y-121125802D01*
X159373065Y-120901247D01*
X159410000Y-120668052D01*
X159410000Y-120431949D01*
X159404381Y-120396474D01*
X159404381Y-120396473D01*
X159402080Y-120381947D01*
X159910000Y-120381947D01*
X159910000Y-120618052D01*
X159946934Y-120851247D01*
X160019897Y-121075802D01*
X160127087Y-121286174D01*
X160187338Y-121369104D01*
X160187340Y-121369105D01*
X160886212Y-120670233D01*
X160897482Y-120712292D01*
X160969890Y-120837708D01*
X161072292Y-120940110D01*
X161197708Y-121012518D01*
X161239765Y-121023787D01*
X160540893Y-121722658D01*
X160623828Y-121782914D01*
X160834197Y-121890102D01*
X161058752Y-121963065D01*
X161058751Y-121963065D01*
X161291948Y-122000000D01*
X161528052Y-122000000D01*
X161761247Y-121963065D01*
X161985802Y-121890102D01*
X162196163Y-121782918D01*
X162196169Y-121782914D01*
X162279104Y-121722658D01*
X162279105Y-121722658D01*
X161580233Y-121023787D01*
X161622292Y-121012518D01*
X161747708Y-120940110D01*
X161850110Y-120837708D01*
X161922518Y-120712292D01*
X161933787Y-120670233D01*
X162632658Y-121369105D01*
X162632658Y-121369104D01*
X162692914Y-121286169D01*
X162692918Y-121286163D01*
X162800102Y-121075802D01*
X162873065Y-120851247D01*
X162910000Y-120618052D01*
X162910000Y-120381947D01*
X166410000Y-120381947D01*
X166410000Y-120618052D01*
X166446934Y-120851247D01*
X166519897Y-121075802D01*
X166627087Y-121286174D01*
X166687338Y-121369104D01*
X166687340Y-121369105D01*
X167386212Y-120670233D01*
X167397482Y-120712292D01*
X167469890Y-120837708D01*
X167572292Y-120940110D01*
X167697708Y-121012518D01*
X167739765Y-121023787D01*
X167040893Y-121722658D01*
X167123828Y-121782914D01*
X167334197Y-121890102D01*
X167558752Y-121963065D01*
X167558751Y-121963065D01*
X167791948Y-122000000D01*
X168028052Y-122000000D01*
X168261247Y-121963065D01*
X168485802Y-121890102D01*
X168696163Y-121782918D01*
X168696169Y-121782914D01*
X168779104Y-121722658D01*
X168779105Y-121722658D01*
X168080233Y-121023787D01*
X168122292Y-121012518D01*
X168247708Y-120940110D01*
X168350110Y-120837708D01*
X168422518Y-120712292D01*
X168433787Y-120670234D01*
X169132658Y-121369105D01*
X169132658Y-121369104D01*
X169192914Y-121286169D01*
X169192918Y-121286163D01*
X169300102Y-121075802D01*
X169373065Y-120851247D01*
X169410000Y-120618052D01*
X169410000Y-120381947D01*
X169910000Y-120381947D01*
X169910000Y-120618052D01*
X169946934Y-120851247D01*
X170019897Y-121075802D01*
X170127087Y-121286174D01*
X170187338Y-121369104D01*
X170187340Y-121369105D01*
X170886212Y-120670233D01*
X170897482Y-120712292D01*
X170969890Y-120837708D01*
X171072292Y-120940110D01*
X171197708Y-121012518D01*
X171239765Y-121023787D01*
X170540893Y-121722658D01*
X170623828Y-121782914D01*
X170834197Y-121890102D01*
X171058752Y-121963065D01*
X171058751Y-121963065D01*
X171291948Y-122000000D01*
X171528052Y-122000000D01*
X171761247Y-121963065D01*
X171985802Y-121890102D01*
X172196163Y-121782918D01*
X172196169Y-121782914D01*
X172279104Y-121722658D01*
X172279105Y-121722658D01*
X171580233Y-121023787D01*
X171622292Y-121012518D01*
X171747708Y-120940110D01*
X171850110Y-120837708D01*
X171922518Y-120712292D01*
X171933787Y-120670234D01*
X172632658Y-121369105D01*
X172632658Y-121369104D01*
X172692914Y-121286169D01*
X172692918Y-121286163D01*
X172800102Y-121075802D01*
X172873065Y-120851247D01*
X172910000Y-120618052D01*
X172910000Y-120381947D01*
X176410000Y-120381947D01*
X176410000Y-120618052D01*
X176446934Y-120851247D01*
X176519897Y-121075802D01*
X176627087Y-121286174D01*
X176687338Y-121369104D01*
X176687340Y-121369105D01*
X177386212Y-120670233D01*
X177397482Y-120712292D01*
X177469890Y-120837708D01*
X177572292Y-120940110D01*
X177697708Y-121012518D01*
X177739765Y-121023787D01*
X177040893Y-121722658D01*
X177123828Y-121782914D01*
X177334197Y-121890102D01*
X177558752Y-121963065D01*
X177558751Y-121963065D01*
X177791948Y-122000000D01*
X178028052Y-122000000D01*
X178261247Y-121963065D01*
X178485802Y-121890102D01*
X178696163Y-121782918D01*
X178696169Y-121782914D01*
X178779104Y-121722658D01*
X178779105Y-121722658D01*
X178080233Y-121023787D01*
X178122292Y-121012518D01*
X178247708Y-120940110D01*
X178350110Y-120837708D01*
X178422518Y-120712292D01*
X178433787Y-120670234D01*
X179132658Y-121369105D01*
X179132658Y-121369104D01*
X179192914Y-121286169D01*
X179192918Y-121286163D01*
X179300102Y-121075802D01*
X179373065Y-120851247D01*
X179410000Y-120618052D01*
X179410000Y-120381947D01*
X179373065Y-120148752D01*
X179300102Y-119924197D01*
X179192914Y-119713828D01*
X179132658Y-119630894D01*
X179132658Y-119630893D01*
X178433787Y-120329765D01*
X178422518Y-120287708D01*
X178350110Y-120162292D01*
X178247708Y-120059890D01*
X178122292Y-119987482D01*
X178080234Y-119976212D01*
X178779105Y-119277340D01*
X178779104Y-119277338D01*
X178696174Y-119217087D01*
X178485802Y-119109897D01*
X178261247Y-119036934D01*
X178261248Y-119036934D01*
X178028052Y-119000000D01*
X177791948Y-119000000D01*
X177558752Y-119036934D01*
X177334197Y-119109897D01*
X177123830Y-119217084D01*
X177040894Y-119277340D01*
X177739766Y-119976212D01*
X177697708Y-119987482D01*
X177572292Y-120059890D01*
X177469890Y-120162292D01*
X177397482Y-120287708D01*
X177386212Y-120329765D01*
X176687340Y-119630894D01*
X176627084Y-119713830D01*
X176519897Y-119924197D01*
X176446934Y-120148752D01*
X176410000Y-120381947D01*
X172910000Y-120381947D01*
X172873065Y-120148752D01*
X172800102Y-119924197D01*
X172692914Y-119713828D01*
X172632658Y-119630894D01*
X172632658Y-119630893D01*
X171933787Y-120329765D01*
X171922518Y-120287708D01*
X171850110Y-120162292D01*
X171747708Y-120059890D01*
X171622292Y-119987482D01*
X171580234Y-119976212D01*
X172279105Y-119277340D01*
X172279104Y-119277339D01*
X172196174Y-119217087D01*
X171985802Y-119109897D01*
X171761247Y-119036934D01*
X171761248Y-119036934D01*
X171528052Y-119000000D01*
X171291948Y-119000000D01*
X171058752Y-119036934D01*
X170834197Y-119109897D01*
X170623830Y-119217084D01*
X170540894Y-119277340D01*
X171239766Y-119976212D01*
X171197708Y-119987482D01*
X171072292Y-120059890D01*
X170969890Y-120162292D01*
X170897482Y-120287708D01*
X170886212Y-120329766D01*
X170187340Y-119630894D01*
X170127084Y-119713830D01*
X170019897Y-119924197D01*
X169946934Y-120148752D01*
X169910000Y-120381947D01*
X169410000Y-120381947D01*
X169373065Y-120148752D01*
X169300102Y-119924197D01*
X169192914Y-119713828D01*
X169132658Y-119630894D01*
X169132658Y-119630893D01*
X168433787Y-120329765D01*
X168422518Y-120287708D01*
X168350110Y-120162292D01*
X168247708Y-120059890D01*
X168122292Y-119987482D01*
X168080234Y-119976212D01*
X168779105Y-119277340D01*
X168779104Y-119277339D01*
X168696174Y-119217087D01*
X168485802Y-119109897D01*
X168261247Y-119036934D01*
X168261248Y-119036934D01*
X168028052Y-119000000D01*
X167791948Y-119000000D01*
X167558752Y-119036934D01*
X167334197Y-119109897D01*
X167123830Y-119217084D01*
X167040894Y-119277340D01*
X167739766Y-119976212D01*
X167697708Y-119987482D01*
X167572292Y-120059890D01*
X167469890Y-120162292D01*
X167397482Y-120287708D01*
X167386212Y-120329766D01*
X166687340Y-119630894D01*
X166627084Y-119713830D01*
X166519897Y-119924197D01*
X166446934Y-120148752D01*
X166410000Y-120381947D01*
X162910000Y-120381947D01*
X162873065Y-120148752D01*
X162800102Y-119924197D01*
X162692914Y-119713828D01*
X162632658Y-119630894D01*
X162632658Y-119630893D01*
X161933787Y-120329765D01*
X161922518Y-120287708D01*
X161850110Y-120162292D01*
X161747708Y-120059890D01*
X161622292Y-119987482D01*
X161580234Y-119976212D01*
X162279105Y-119277340D01*
X162279104Y-119277339D01*
X162196174Y-119217087D01*
X161985802Y-119109897D01*
X161761247Y-119036934D01*
X161761248Y-119036934D01*
X161528052Y-119000000D01*
X161291948Y-119000000D01*
X161058752Y-119036934D01*
X160834197Y-119109897D01*
X160623830Y-119217084D01*
X160540894Y-119277340D01*
X161239766Y-119976212D01*
X161197708Y-119987482D01*
X161072292Y-120059890D01*
X160969890Y-120162292D01*
X160897482Y-120287708D01*
X160886212Y-120329766D01*
X160187340Y-119630894D01*
X160127084Y-119713830D01*
X160019897Y-119924197D01*
X159946934Y-120148752D01*
X159910000Y-120381947D01*
X159402080Y-120381947D01*
X159373065Y-120198751D01*
X159300102Y-119974197D01*
X159192914Y-119763828D01*
X159132658Y-119680894D01*
X159132658Y-119680893D01*
X158433787Y-120379765D01*
X158422518Y-120337708D01*
X158350110Y-120212292D01*
X158247708Y-120109890D01*
X158122292Y-120037482D01*
X158080234Y-120026212D01*
X158779105Y-119327340D01*
X158779104Y-119327339D01*
X158696174Y-119267087D01*
X158485802Y-119159897D01*
X158261247Y-119086934D01*
X158261248Y-119086934D01*
X158028052Y-119050000D01*
X157791948Y-119050000D01*
X157558752Y-119086934D01*
X157334197Y-119159897D01*
X157123830Y-119267084D01*
X157040894Y-119327340D01*
X157739766Y-120026212D01*
X157697708Y-120037482D01*
X157572292Y-120109890D01*
X157469890Y-120212292D01*
X157397482Y-120337708D01*
X157386212Y-120379766D01*
X156687340Y-119680894D01*
X156627084Y-119763830D01*
X156519897Y-119974197D01*
X156446934Y-120198752D01*
X156410000Y-120431947D01*
X152910000Y-120431947D01*
X152873065Y-120198752D01*
X152800102Y-119974197D01*
X152692914Y-119763828D01*
X152632658Y-119680894D01*
X152632658Y-119680893D01*
X151933787Y-120379765D01*
X151922518Y-120337708D01*
X151850110Y-120212292D01*
X151747708Y-120109890D01*
X151622292Y-120037482D01*
X151580234Y-120026212D01*
X152279105Y-119327340D01*
X152279104Y-119327339D01*
X152196174Y-119267087D01*
X151985802Y-119159897D01*
X151761247Y-119086934D01*
X151761248Y-119086934D01*
X151528052Y-119050000D01*
X151291948Y-119050000D01*
X151058752Y-119086934D01*
X150834197Y-119159897D01*
X150623830Y-119267084D01*
X150540894Y-119327340D01*
X151239766Y-120026212D01*
X151197708Y-120037482D01*
X151072292Y-120109890D01*
X150969890Y-120212292D01*
X150897482Y-120337708D01*
X150886212Y-120379766D01*
X150187340Y-119680894D01*
X150127084Y-119763830D01*
X150019897Y-119974195D01*
X149992431Y-120058729D01*
X149952993Y-120116404D01*
X149888634Y-120143602D01*
X149819788Y-120131687D01*
X149768312Y-120084443D01*
X149750500Y-120020410D01*
X149750500Y-116581209D01*
X149770185Y-116514170D01*
X149822989Y-116468415D01*
X149892147Y-116458471D01*
X149955703Y-116487496D01*
X149992430Y-116542890D01*
X150019432Y-116625992D01*
X150126657Y-116836433D01*
X150265483Y-117027510D01*
X150432490Y-117194517D01*
X150623567Y-117333343D01*
X150722991Y-117384002D01*
X150834003Y-117440566D01*
X150834005Y-117440566D01*
X150834008Y-117440568D01*
X150954412Y-117479689D01*
X151058631Y-117513553D01*
X151291903Y-117550500D01*
X151291908Y-117550500D01*
X151528097Y-117550500D01*
X151761368Y-117513553D01*
X151985992Y-117440568D01*
X152196433Y-117333343D01*
X152387510Y-117194517D01*
X152554517Y-117027510D01*
X152693343Y-116836433D01*
X152800568Y-116625992D01*
X152873553Y-116401368D01*
X152881472Y-116351368D01*
X152910500Y-116168097D01*
X152910500Y-115931902D01*
X156409500Y-115931902D01*
X156409500Y-116168097D01*
X156446446Y-116401368D01*
X156519433Y-116625996D01*
X156626657Y-116836433D01*
X156765483Y-117027510D01*
X156932490Y-117194517D01*
X157123567Y-117333343D01*
X157222991Y-117384002D01*
X157334003Y-117440566D01*
X157334005Y-117440566D01*
X157334008Y-117440568D01*
X157454412Y-117479689D01*
X157558631Y-117513553D01*
X157791903Y-117550500D01*
X157791908Y-117550500D01*
X158028097Y-117550500D01*
X158261368Y-117513553D01*
X158485992Y-117440568D01*
X158696433Y-117333343D01*
X158887510Y-117194517D01*
X159054517Y-117027510D01*
X159193343Y-116836433D01*
X159300568Y-116625992D01*
X159373553Y-116401368D01*
X159381472Y-116351368D01*
X159410500Y-116168097D01*
X159410500Y-115931903D01*
X159404882Y-115896435D01*
X159404882Y-115896434D01*
X159402580Y-115881902D01*
X159909500Y-115881902D01*
X159909500Y-116118097D01*
X159946446Y-116351368D01*
X160019433Y-116575996D01*
X160044910Y-116625996D01*
X160126657Y-116786433D01*
X160265483Y-116977510D01*
X160432490Y-117144517D01*
X160623567Y-117283343D01*
X160721696Y-117333342D01*
X160834003Y-117390566D01*
X160834005Y-117390566D01*
X160834008Y-117390568D01*
X160954412Y-117429689D01*
X161058631Y-117463553D01*
X161291903Y-117500500D01*
X161291908Y-117500500D01*
X161528097Y-117500500D01*
X161761368Y-117463553D01*
X161832114Y-117440566D01*
X161985992Y-117390568D01*
X162196433Y-117283343D01*
X162387510Y-117144517D01*
X162554517Y-116977510D01*
X162693343Y-116786433D01*
X162800568Y-116575992D01*
X162873553Y-116351368D01*
X162910500Y-116118097D01*
X162910500Y-115881902D01*
X166409500Y-115881902D01*
X166409500Y-116118097D01*
X166446446Y-116351368D01*
X166519433Y-116575996D01*
X166544910Y-116625996D01*
X166626657Y-116786433D01*
X166765483Y-116977510D01*
X166932490Y-117144517D01*
X167123567Y-117283343D01*
X167221696Y-117333342D01*
X167334003Y-117390566D01*
X167334005Y-117390566D01*
X167334008Y-117390568D01*
X167454412Y-117429689D01*
X167558631Y-117463553D01*
X167791903Y-117500500D01*
X167791908Y-117500500D01*
X168028097Y-117500500D01*
X168261368Y-117463553D01*
X168332114Y-117440566D01*
X168485992Y-117390568D01*
X168696433Y-117283343D01*
X168887510Y-117144517D01*
X169054517Y-116977510D01*
X169193343Y-116786433D01*
X169300568Y-116575992D01*
X169373553Y-116351368D01*
X169410500Y-116118097D01*
X169410500Y-115881902D01*
X169909500Y-115881902D01*
X169909500Y-116118097D01*
X169946446Y-116351368D01*
X170019433Y-116575996D01*
X170044910Y-116625996D01*
X170126657Y-116786433D01*
X170265483Y-116977510D01*
X170432490Y-117144517D01*
X170623567Y-117283343D01*
X170721696Y-117333342D01*
X170834003Y-117390566D01*
X170834005Y-117390566D01*
X170834008Y-117390568D01*
X170954412Y-117429689D01*
X171058631Y-117463553D01*
X171291903Y-117500500D01*
X171291908Y-117500500D01*
X171528097Y-117500500D01*
X171761368Y-117463553D01*
X171832114Y-117440566D01*
X171985992Y-117390568D01*
X172196433Y-117283343D01*
X172387510Y-117144517D01*
X172554517Y-116977510D01*
X172693343Y-116786433D01*
X172800568Y-116575992D01*
X172873553Y-116351368D01*
X172910500Y-116118097D01*
X172910500Y-115881902D01*
X176409500Y-115881902D01*
X176409500Y-116118097D01*
X176446446Y-116351368D01*
X176519433Y-116575996D01*
X176544910Y-116625996D01*
X176626657Y-116786433D01*
X176765483Y-116977510D01*
X176932490Y-117144517D01*
X177123567Y-117283343D01*
X177221696Y-117333342D01*
X177334003Y-117390566D01*
X177334005Y-117390566D01*
X177334008Y-117390568D01*
X177454412Y-117429689D01*
X177558631Y-117463553D01*
X177791903Y-117500500D01*
X177791908Y-117500500D01*
X178028097Y-117500500D01*
X178261368Y-117463553D01*
X178332114Y-117440566D01*
X178485992Y-117390568D01*
X178696433Y-117283343D01*
X178887510Y-117144517D01*
X179054517Y-116977510D01*
X179193343Y-116786433D01*
X179300568Y-116575992D01*
X179373553Y-116351368D01*
X179410500Y-116118097D01*
X179410500Y-115881902D01*
X179373553Y-115648631D01*
X179300566Y-115424003D01*
X179193342Y-115213566D01*
X179054517Y-115022490D01*
X178887510Y-114855483D01*
X178696433Y-114716657D01*
X178485996Y-114609433D01*
X178261368Y-114536446D01*
X178028097Y-114499500D01*
X178028092Y-114499500D01*
X177791908Y-114499500D01*
X177791903Y-114499500D01*
X177558631Y-114536446D01*
X177334003Y-114609433D01*
X177123566Y-114716657D01*
X177054748Y-114766657D01*
X176932490Y-114855483D01*
X176932488Y-114855485D01*
X176932487Y-114855485D01*
X176765485Y-115022487D01*
X176765485Y-115022488D01*
X176765483Y-115022490D01*
X176729158Y-115072487D01*
X176626657Y-115213566D01*
X176519433Y-115424003D01*
X176446446Y-115648631D01*
X176409500Y-115881902D01*
X172910500Y-115881902D01*
X172873553Y-115648631D01*
X172800566Y-115424003D01*
X172693342Y-115213566D01*
X172554517Y-115022490D01*
X172387510Y-114855483D01*
X172196433Y-114716657D01*
X171985996Y-114609433D01*
X171761368Y-114536446D01*
X171528097Y-114499500D01*
X171528092Y-114499500D01*
X171291908Y-114499500D01*
X171291903Y-114499500D01*
X171058631Y-114536446D01*
X170834003Y-114609433D01*
X170623566Y-114716657D01*
X170554748Y-114766657D01*
X170432490Y-114855483D01*
X170432488Y-114855485D01*
X170432487Y-114855485D01*
X170265485Y-115022487D01*
X170265485Y-115022488D01*
X170265483Y-115022490D01*
X170229158Y-115072487D01*
X170126657Y-115213566D01*
X170019433Y-115424003D01*
X169946446Y-115648631D01*
X169909500Y-115881902D01*
X169410500Y-115881902D01*
X169373553Y-115648631D01*
X169300566Y-115424003D01*
X169193342Y-115213566D01*
X169054517Y-115022490D01*
X168887510Y-114855483D01*
X168696433Y-114716657D01*
X168485996Y-114609433D01*
X168261368Y-114536446D01*
X168028097Y-114499500D01*
X168028092Y-114499500D01*
X167791908Y-114499500D01*
X167791903Y-114499500D01*
X167558631Y-114536446D01*
X167334003Y-114609433D01*
X167123566Y-114716657D01*
X167054748Y-114766657D01*
X166932490Y-114855483D01*
X166932488Y-114855485D01*
X166932487Y-114855485D01*
X166765485Y-115022487D01*
X166765485Y-115022488D01*
X166765483Y-115022490D01*
X166729158Y-115072487D01*
X166626657Y-115213566D01*
X166519433Y-115424003D01*
X166446446Y-115648631D01*
X166409500Y-115881902D01*
X162910500Y-115881902D01*
X162873553Y-115648631D01*
X162800566Y-115424003D01*
X162693342Y-115213566D01*
X162554517Y-115022490D01*
X162387510Y-114855483D01*
X162196433Y-114716657D01*
X161985996Y-114609433D01*
X161761368Y-114536446D01*
X161528097Y-114499500D01*
X161528092Y-114499500D01*
X161291908Y-114499500D01*
X161291903Y-114499500D01*
X161058631Y-114536446D01*
X160834003Y-114609433D01*
X160623566Y-114716657D01*
X160554748Y-114766657D01*
X160432490Y-114855483D01*
X160432488Y-114855485D01*
X160432487Y-114855485D01*
X160265485Y-115022487D01*
X160265485Y-115022488D01*
X160265483Y-115022490D01*
X160229158Y-115072487D01*
X160126657Y-115213566D01*
X160019433Y-115424003D01*
X159946446Y-115648631D01*
X159909500Y-115881902D01*
X159402580Y-115881902D01*
X159373553Y-115698631D01*
X159327569Y-115557109D01*
X159300568Y-115474008D01*
X159300566Y-115474005D01*
X159300566Y-115474003D01*
X159193342Y-115263566D01*
X159054517Y-115072490D01*
X158887510Y-114905483D01*
X158696433Y-114766657D01*
X158485996Y-114659433D01*
X158261368Y-114586446D01*
X158028097Y-114549500D01*
X158028092Y-114549500D01*
X157791908Y-114549500D01*
X157791903Y-114549500D01*
X157558631Y-114586446D01*
X157334003Y-114659433D01*
X157123566Y-114766657D01*
X157014550Y-114845862D01*
X156932490Y-114905483D01*
X156932488Y-114905485D01*
X156932487Y-114905485D01*
X156765485Y-115072487D01*
X156765485Y-115072488D01*
X156765483Y-115072490D01*
X156705862Y-115154550D01*
X156626657Y-115263566D01*
X156519433Y-115474003D01*
X156446446Y-115698631D01*
X156409500Y-115931902D01*
X152910500Y-115931902D01*
X152873553Y-115698631D01*
X152827569Y-115557109D01*
X152800568Y-115474008D01*
X152800566Y-115474005D01*
X152800566Y-115474003D01*
X152693342Y-115263566D01*
X152554517Y-115072490D01*
X152387510Y-114905483D01*
X152196433Y-114766657D01*
X151985996Y-114659433D01*
X151761368Y-114586446D01*
X151528097Y-114549500D01*
X151528092Y-114549500D01*
X151291908Y-114549500D01*
X151291903Y-114549500D01*
X151058631Y-114586446D01*
X150834003Y-114659433D01*
X150623566Y-114766657D01*
X150514550Y-114845862D01*
X150432490Y-114905483D01*
X150432488Y-114905485D01*
X150432487Y-114905485D01*
X150265485Y-115072487D01*
X150265485Y-115072488D01*
X150265483Y-115072490D01*
X150205862Y-115154550D01*
X150126657Y-115263566D01*
X150019433Y-115474003D01*
X149992431Y-115557109D01*
X149952993Y-115614784D01*
X149888634Y-115641982D01*
X149819788Y-115630067D01*
X149768312Y-115582823D01*
X149750500Y-115518790D01*
X149750500Y-87527648D01*
X156179500Y-87527648D01*
X156179500Y-87732351D01*
X156211522Y-87934534D01*
X156274781Y-88129223D01*
X156367715Y-88311613D01*
X156488028Y-88477213D01*
X156632786Y-88621971D01*
X156798385Y-88742284D01*
X156798387Y-88742285D01*
X156798390Y-88742287D01*
X156886517Y-88787190D01*
X156891630Y-88789795D01*
X156942426Y-88837770D01*
X156959221Y-88905591D01*
X156936684Y-88971725D01*
X156891630Y-89010765D01*
X156798644Y-89058143D01*
X156754077Y-89090523D01*
X156754077Y-89090524D01*
X157433554Y-89770000D01*
X157427339Y-89770000D01*
X157325606Y-89797259D01*
X157234394Y-89849920D01*
X157159920Y-89924394D01*
X157107259Y-90015606D01*
X157080000Y-90117339D01*
X157080000Y-90123553D01*
X156400524Y-89444077D01*
X156400523Y-89444077D01*
X156368143Y-89488644D01*
X156275244Y-89670968D01*
X156212009Y-89865582D01*
X156180000Y-90067682D01*
X156180000Y-90272317D01*
X156212009Y-90474417D01*
X156275244Y-90669031D01*
X156368141Y-90851350D01*
X156368147Y-90851359D01*
X156400523Y-90895921D01*
X156400524Y-90895922D01*
X157080000Y-90216446D01*
X157080000Y-90222661D01*
X157107259Y-90324394D01*
X157159920Y-90415606D01*
X157234394Y-90490080D01*
X157325606Y-90542741D01*
X157427339Y-90570000D01*
X157433553Y-90570000D01*
X156754076Y-91249474D01*
X156798652Y-91281861D01*
X156891628Y-91329234D01*
X156942425Y-91377208D01*
X156959220Y-91445029D01*
X156936683Y-91511164D01*
X156891630Y-91550203D01*
X156798388Y-91597713D01*
X156632786Y-91718028D01*
X156488028Y-91862786D01*
X156367715Y-92028386D01*
X156274781Y-92210776D01*
X156211522Y-92405465D01*
X156179500Y-92607648D01*
X156179500Y-92812351D01*
X156211522Y-93014534D01*
X156274781Y-93209223D01*
X156367715Y-93391613D01*
X156488028Y-93557213D01*
X156632786Y-93701971D01*
X156787749Y-93814556D01*
X156798390Y-93822287D01*
X156889840Y-93868883D01*
X156891080Y-93869515D01*
X156941876Y-93917490D01*
X156958671Y-93985311D01*
X156936134Y-94051446D01*
X156891080Y-94090485D01*
X156798386Y-94137715D01*
X156632786Y-94258028D01*
X156488028Y-94402786D01*
X156367715Y-94568386D01*
X156274781Y-94750776D01*
X156211522Y-94945465D01*
X156179500Y-95147648D01*
X156179500Y-95352351D01*
X156211522Y-95554534D01*
X156274781Y-95749223D01*
X156331010Y-95859577D01*
X156362707Y-95921786D01*
X156367715Y-95931613D01*
X156488028Y-96097213D01*
X156632786Y-96241971D01*
X156787749Y-96354556D01*
X156798390Y-96362287D01*
X156889840Y-96408883D01*
X156891080Y-96409515D01*
X156941876Y-96457490D01*
X156958671Y-96525311D01*
X156936134Y-96591446D01*
X156891080Y-96630485D01*
X156798386Y-96677715D01*
X156632786Y-96798028D01*
X156488028Y-96942786D01*
X156367715Y-97108386D01*
X156274781Y-97290776D01*
X156211522Y-97485465D01*
X156179500Y-97687648D01*
X156179500Y-97892351D01*
X156211522Y-98094534D01*
X156274781Y-98289223D01*
X156367715Y-98471613D01*
X156488028Y-98637213D01*
X156632786Y-98781971D01*
X156787749Y-98894556D01*
X156798390Y-98902287D01*
X156889840Y-98948883D01*
X156891080Y-98949515D01*
X156941876Y-98997490D01*
X156958671Y-99065311D01*
X156936134Y-99131446D01*
X156891080Y-99170485D01*
X156798386Y-99217715D01*
X156632786Y-99338028D01*
X156488028Y-99482786D01*
X156367715Y-99648386D01*
X156274781Y-99830776D01*
X156211522Y-100025465D01*
X156179500Y-100227648D01*
X156179500Y-100432351D01*
X156211522Y-100634534D01*
X156274781Y-100829223D01*
X156367715Y-101011613D01*
X156488028Y-101177213D01*
X156632786Y-101321971D01*
X156787749Y-101434556D01*
X156798390Y-101442287D01*
X156889840Y-101488883D01*
X156891080Y-101489515D01*
X156941876Y-101537490D01*
X156958671Y-101605311D01*
X156936134Y-101671446D01*
X156891080Y-101710485D01*
X156798386Y-101757715D01*
X156632786Y-101878028D01*
X156488028Y-102022786D01*
X156367715Y-102188386D01*
X156274781Y-102370776D01*
X156211522Y-102565465D01*
X156179500Y-102767648D01*
X156179500Y-102972351D01*
X156211522Y-103174534D01*
X156274781Y-103369223D01*
X156367715Y-103551613D01*
X156488028Y-103717213D01*
X156632786Y-103861971D01*
X156787749Y-103974556D01*
X156798390Y-103982287D01*
X156889840Y-104028883D01*
X156891080Y-104029515D01*
X156941876Y-104077490D01*
X156958671Y-104145311D01*
X156936134Y-104211446D01*
X156891080Y-104250485D01*
X156798386Y-104297715D01*
X156632786Y-104418028D01*
X156488028Y-104562786D01*
X156367715Y-104728386D01*
X156274781Y-104910776D01*
X156211522Y-105105465D01*
X156179500Y-105307648D01*
X156179500Y-105512351D01*
X156211522Y-105714534D01*
X156274781Y-105909223D01*
X156367715Y-106091613D01*
X156488028Y-106257213D01*
X156632786Y-106401971D01*
X156787749Y-106514556D01*
X156798390Y-106522287D01*
X156914607Y-106581503D01*
X156980776Y-106615218D01*
X156980778Y-106615218D01*
X156980781Y-106615220D01*
X157085137Y-106649127D01*
X157175465Y-106678477D01*
X157276557Y-106694488D01*
X157377648Y-106710500D01*
X157377649Y-106710500D01*
X157582351Y-106710500D01*
X157582352Y-106710500D01*
X157784534Y-106678477D01*
X157979219Y-106615220D01*
X158161610Y-106522287D01*
X158254590Y-106454732D01*
X158327213Y-106401971D01*
X158327215Y-106401968D01*
X158327219Y-106401966D01*
X158471966Y-106257219D01*
X158471968Y-106257215D01*
X158471971Y-106257213D01*
X158524732Y-106184590D01*
X158592287Y-106091610D01*
X158685220Y-105909219D01*
X158748477Y-105714534D01*
X158780500Y-105512352D01*
X158780500Y-105307648D01*
X158748477Y-105105466D01*
X158685220Y-104910781D01*
X158685218Y-104910778D01*
X158685218Y-104910776D01*
X158651503Y-104844607D01*
X158592287Y-104728390D01*
X158584556Y-104717749D01*
X158471971Y-104562786D01*
X158327213Y-104418028D01*
X158161614Y-104297715D01*
X158155006Y-104294348D01*
X158068917Y-104250483D01*
X158018123Y-104202511D01*
X158001328Y-104134690D01*
X158023865Y-104068555D01*
X158068917Y-104029516D01*
X158161610Y-103982287D01*
X158182770Y-103966913D01*
X158327213Y-103861971D01*
X158327215Y-103861968D01*
X158327219Y-103861966D01*
X158471966Y-103717219D01*
X158471968Y-103717215D01*
X158471971Y-103717213D01*
X158524732Y-103644590D01*
X158592287Y-103551610D01*
X158685220Y-103369219D01*
X158748477Y-103174534D01*
X158780500Y-102972352D01*
X158780500Y-102767648D01*
X158748477Y-102565466D01*
X158685220Y-102370781D01*
X158685218Y-102370778D01*
X158685218Y-102370776D01*
X158651503Y-102304607D01*
X158592287Y-102188390D01*
X158584556Y-102177749D01*
X158471971Y-102022786D01*
X158327213Y-101878028D01*
X158161614Y-101757715D01*
X158155006Y-101754348D01*
X158068917Y-101710483D01*
X158018123Y-101662511D01*
X158001328Y-101594690D01*
X158023865Y-101528555D01*
X158068917Y-101489516D01*
X158161610Y-101442287D01*
X158182770Y-101426913D01*
X158327213Y-101321971D01*
X158327215Y-101321968D01*
X158327219Y-101321966D01*
X158471966Y-101177219D01*
X158471968Y-101177215D01*
X158471971Y-101177213D01*
X158524732Y-101104590D01*
X158592287Y-101011610D01*
X158685220Y-100829219D01*
X158748477Y-100634534D01*
X158780500Y-100432352D01*
X158780500Y-100227648D01*
X158748477Y-100025466D01*
X158685220Y-99830781D01*
X158685218Y-99830778D01*
X158685218Y-99830776D01*
X158651503Y-99764607D01*
X158592287Y-99648390D01*
X158584556Y-99637749D01*
X158471971Y-99482786D01*
X158327213Y-99338028D01*
X158161614Y-99217715D01*
X158155006Y-99214348D01*
X158068917Y-99170483D01*
X158018123Y-99122511D01*
X158001328Y-99054690D01*
X158023865Y-98988555D01*
X158068917Y-98949516D01*
X158161610Y-98902287D01*
X158182770Y-98886913D01*
X158327213Y-98781971D01*
X158327215Y-98781968D01*
X158327219Y-98781966D01*
X158471966Y-98637219D01*
X158471968Y-98637215D01*
X158471971Y-98637213D01*
X158524732Y-98564590D01*
X158592287Y-98471610D01*
X158685220Y-98289219D01*
X158748477Y-98094534D01*
X158780500Y-97892352D01*
X158780500Y-97687648D01*
X158748477Y-97485466D01*
X158685220Y-97290781D01*
X158685218Y-97290778D01*
X158685218Y-97290776D01*
X158651503Y-97224607D01*
X158592287Y-97108390D01*
X158584556Y-97097749D01*
X158471971Y-96942786D01*
X158327213Y-96798028D01*
X158161614Y-96677715D01*
X158155006Y-96674348D01*
X158068917Y-96630483D01*
X158018123Y-96582511D01*
X158001328Y-96514690D01*
X158023865Y-96448555D01*
X158068917Y-96409516D01*
X158161610Y-96362287D01*
X158182770Y-96346913D01*
X158327213Y-96241971D01*
X158327215Y-96241968D01*
X158327219Y-96241966D01*
X158471966Y-96097219D01*
X158471968Y-96097215D01*
X158471971Y-96097213D01*
X158535777Y-96009390D01*
X158592287Y-95931610D01*
X158685220Y-95749219D01*
X158748477Y-95554534D01*
X158780500Y-95352352D01*
X158780500Y-95147648D01*
X158748477Y-94945466D01*
X158740471Y-94920827D01*
X158685218Y-94750776D01*
X158633967Y-94650192D01*
X158592287Y-94568390D01*
X158564587Y-94530264D01*
X158471971Y-94402786D01*
X158327213Y-94258028D01*
X158161614Y-94137715D01*
X158155006Y-94134348D01*
X158068917Y-94090483D01*
X158018123Y-94042511D01*
X158001328Y-93974690D01*
X158023865Y-93908555D01*
X158068917Y-93869516D01*
X158161610Y-93822287D01*
X158182770Y-93806913D01*
X158327213Y-93701971D01*
X158327215Y-93701968D01*
X158327219Y-93701966D01*
X158471966Y-93557219D01*
X158471968Y-93557215D01*
X158471971Y-93557213D01*
X158524732Y-93484590D01*
X158592287Y-93391610D01*
X158685220Y-93209219D01*
X158748477Y-93014534D01*
X158780500Y-92812352D01*
X158780500Y-92607648D01*
X158748477Y-92405466D01*
X158685220Y-92210781D01*
X158685218Y-92210778D01*
X158685218Y-92210776D01*
X158651503Y-92144607D01*
X158592287Y-92028390D01*
X158584556Y-92017749D01*
X158471971Y-91862786D01*
X158327213Y-91718028D01*
X158161611Y-91597713D01*
X158068369Y-91550203D01*
X158017574Y-91502229D01*
X158000779Y-91434407D01*
X158023317Y-91368273D01*
X158068371Y-91329234D01*
X158161346Y-91281861D01*
X158161347Y-91281861D01*
X158205921Y-91249474D01*
X157526447Y-90570000D01*
X157532661Y-90570000D01*
X157634394Y-90542741D01*
X157725606Y-90490080D01*
X157800080Y-90415606D01*
X157852741Y-90324394D01*
X157880000Y-90222661D01*
X157880000Y-90216448D01*
X158559474Y-90895922D01*
X158559474Y-90895921D01*
X158591859Y-90851349D01*
X158684755Y-90669031D01*
X158747990Y-90474417D01*
X158780000Y-90272317D01*
X158780000Y-90067682D01*
X158747990Y-89865582D01*
X158684755Y-89670968D01*
X158591859Y-89488650D01*
X158559474Y-89444077D01*
X158559474Y-89444076D01*
X157880000Y-90123551D01*
X157880000Y-90117339D01*
X157852741Y-90015606D01*
X157800080Y-89924394D01*
X157725606Y-89849920D01*
X157634394Y-89797259D01*
X157532661Y-89770000D01*
X157526446Y-89770000D01*
X158205922Y-89090524D01*
X158205921Y-89090523D01*
X158161359Y-89058147D01*
X158161350Y-89058141D01*
X158068369Y-89010765D01*
X158017573Y-88962790D01*
X158000778Y-88894969D01*
X158023315Y-88828835D01*
X158068370Y-88789795D01*
X158073483Y-88787190D01*
X158161610Y-88742287D01*
X158227663Y-88694297D01*
X158327213Y-88621971D01*
X158327215Y-88621968D01*
X158327219Y-88621966D01*
X158471966Y-88477219D01*
X158471968Y-88477215D01*
X158471971Y-88477213D01*
X158533109Y-88393062D01*
X158592287Y-88311610D01*
X158685220Y-88129219D01*
X158748477Y-87934534D01*
X158750000Y-87924918D01*
X158768322Y-87809240D01*
X158780500Y-87732351D01*
X158780500Y-87527648D01*
X158748477Y-87325465D01*
X158685218Y-87130776D01*
X158639515Y-87041080D01*
X158592287Y-86948390D01*
X158580978Y-86932824D01*
X158522067Y-86851739D01*
X158522064Y-86851736D01*
X158471969Y-86782786D01*
X158471966Y-86782781D01*
X158471340Y-86782155D01*
X159990000Y-86782155D01*
X159990000Y-87380000D01*
X160974314Y-87380000D01*
X160969920Y-87384394D01*
X160917259Y-87475606D01*
X160890000Y-87577339D01*
X160890000Y-87682661D01*
X160917259Y-87784394D01*
X160969920Y-87875606D01*
X160974314Y-87880000D01*
X159990000Y-87880000D01*
X159990000Y-88477844D01*
X159996401Y-88537372D01*
X159996403Y-88537379D01*
X160046645Y-88672086D01*
X160046649Y-88672093D01*
X160132809Y-88787187D01*
X160132812Y-88787190D01*
X160247906Y-88873350D01*
X160247913Y-88873354D01*
X160382620Y-88923596D01*
X160382627Y-88923598D01*
X160442155Y-88929999D01*
X160442172Y-88930000D01*
X161040000Y-88930000D01*
X161040000Y-87945686D01*
X161044394Y-87950080D01*
X161135606Y-88002741D01*
X161237339Y-88030000D01*
X161342661Y-88030000D01*
X161444394Y-88002741D01*
X161535606Y-87950080D01*
X161540000Y-87945686D01*
X161540000Y-88930000D01*
X162137828Y-88930000D01*
X162137844Y-88929999D01*
X162197372Y-88923598D01*
X162197379Y-88923596D01*
X162332086Y-88873354D01*
X162332093Y-88873350D01*
X162447187Y-88787190D01*
X162447190Y-88787187D01*
X162533350Y-88672093D01*
X162533354Y-88672086D01*
X162583596Y-88537379D01*
X162587620Y-88499956D01*
X162614358Y-88435404D01*
X162671750Y-88395556D01*
X162741575Y-88393062D01*
X162801664Y-88428714D01*
X162811228Y-88440325D01*
X162838028Y-88477212D01*
X162838032Y-88477217D01*
X162982786Y-88621971D01*
X163132182Y-88730511D01*
X163148390Y-88742287D01*
X163236517Y-88787190D01*
X163330776Y-88835218D01*
X163330778Y-88835218D01*
X163330781Y-88835220D01*
X163412955Y-88861920D01*
X163525465Y-88898477D01*
X163570381Y-88905591D01*
X163727648Y-88930500D01*
X163727649Y-88930500D01*
X163932351Y-88930500D01*
X163932352Y-88930500D01*
X164134534Y-88898477D01*
X164329219Y-88835220D01*
X164511610Y-88742287D01*
X164608234Y-88672086D01*
X164677213Y-88621971D01*
X164677215Y-88621968D01*
X164677219Y-88621966D01*
X164821966Y-88477219D01*
X164821968Y-88477215D01*
X164821971Y-88477213D01*
X164942284Y-88311614D01*
X164942285Y-88311613D01*
X164942287Y-88311610D01*
X164989516Y-88218917D01*
X165037489Y-88168123D01*
X165105310Y-88151328D01*
X165171445Y-88173865D01*
X165210485Y-88218919D01*
X165257715Y-88311614D01*
X165378028Y-88477213D01*
X165522786Y-88621971D01*
X165688385Y-88742284D01*
X165688387Y-88742285D01*
X165688390Y-88742287D01*
X165759731Y-88778637D01*
X165810527Y-88826612D01*
X165827322Y-88894433D01*
X165804785Y-88960568D01*
X165791120Y-88976801D01*
X165778210Y-88989711D01*
X165690609Y-89120814D01*
X165690602Y-89120827D01*
X165630264Y-89266498D01*
X165630261Y-89266510D01*
X165599500Y-89421153D01*
X165599500Y-89578846D01*
X165630261Y-89733489D01*
X165630264Y-89733501D01*
X165690602Y-89879172D01*
X165690609Y-89879185D01*
X165778210Y-90010288D01*
X165778213Y-90010292D01*
X165889707Y-90121786D01*
X165889711Y-90121789D01*
X166020814Y-90209390D01*
X166020827Y-90209397D01*
X166166498Y-90269735D01*
X166166503Y-90269737D01*
X166321153Y-90300499D01*
X166321156Y-90300500D01*
X166321158Y-90300500D01*
X166478844Y-90300500D01*
X166478845Y-90300499D01*
X166633497Y-90269737D01*
X166779179Y-90209394D01*
X166838138Y-90169999D01*
X166910875Y-90121398D01*
X166977553Y-90100520D01*
X166979766Y-90100500D01*
X170763331Y-90100500D01*
X170763347Y-90100501D01*
X170770943Y-90100501D01*
X170929054Y-90100501D01*
X170929057Y-90100501D01*
X171081785Y-90059577D01*
X171131904Y-90030639D01*
X171218716Y-89980520D01*
X171221819Y-89977416D01*
X171232346Y-89971187D01*
X171259276Y-89964345D01*
X171285188Y-89954330D01*
X171292664Y-89955863D01*
X171300065Y-89953984D01*
X171326419Y-89962788D01*
X171353632Y-89968371D01*
X171359093Y-89973703D01*
X171366334Y-89976123D01*
X171383740Y-89997773D01*
X171403620Y-90017186D01*
X171405679Y-90025060D01*
X171410114Y-90030576D01*
X171412165Y-90049856D01*
X171419500Y-90077900D01*
X171419500Y-90272351D01*
X171451522Y-90474534D01*
X171514781Y-90669223D01*
X171578691Y-90794653D01*
X171607585Y-90851359D01*
X171607715Y-90851613D01*
X171728028Y-91017213D01*
X171872786Y-91161971D01*
X171993226Y-91249474D01*
X172038390Y-91282287D01*
X172129840Y-91328883D01*
X172131080Y-91329515D01*
X172181876Y-91377490D01*
X172198671Y-91445311D01*
X172176134Y-91511446D01*
X172131080Y-91550485D01*
X172038386Y-91597715D01*
X171872786Y-91718028D01*
X171728028Y-91862786D01*
X171607715Y-92028386D01*
X171514781Y-92210776D01*
X171451522Y-92405465D01*
X171419500Y-92607648D01*
X171419500Y-92812351D01*
X171451522Y-93014534D01*
X171514781Y-93209223D01*
X171607715Y-93391613D01*
X171728028Y-93557213D01*
X171872786Y-93701971D01*
X172027749Y-93814556D01*
X172038390Y-93822287D01*
X172129840Y-93868883D01*
X172131080Y-93869515D01*
X172181876Y-93917490D01*
X172198671Y-93985311D01*
X172176134Y-94051446D01*
X172131080Y-94090485D01*
X172038386Y-94137715D01*
X171872786Y-94258028D01*
X171728028Y-94402786D01*
X171607715Y-94568386D01*
X171514781Y-94750776D01*
X171451522Y-94945465D01*
X171419500Y-95147648D01*
X171419500Y-95352351D01*
X171451522Y-95554534D01*
X171514781Y-95749223D01*
X171571010Y-95859577D01*
X171602707Y-95921786D01*
X171607715Y-95931613D01*
X171728028Y-96097213D01*
X171872786Y-96241971D01*
X172027749Y-96354556D01*
X172038390Y-96362287D01*
X172129840Y-96408883D01*
X172131080Y-96409515D01*
X172181876Y-96457490D01*
X172198671Y-96525311D01*
X172176134Y-96591446D01*
X172131080Y-96630485D01*
X172038386Y-96677715D01*
X171872786Y-96798028D01*
X171728028Y-96942786D01*
X171607715Y-97108386D01*
X171514781Y-97290776D01*
X171451522Y-97485465D01*
X171419500Y-97687648D01*
X171419500Y-97892351D01*
X171451522Y-98094534D01*
X171514781Y-98289223D01*
X171607715Y-98471613D01*
X171728028Y-98637213D01*
X171872786Y-98781971D01*
X172027749Y-98894556D01*
X172038390Y-98902287D01*
X172129840Y-98948883D01*
X172131080Y-98949515D01*
X172181876Y-98997490D01*
X172198671Y-99065311D01*
X172176134Y-99131446D01*
X172131080Y-99170485D01*
X172038386Y-99217715D01*
X171872786Y-99338028D01*
X171728028Y-99482786D01*
X171607715Y-99648386D01*
X171514781Y-99830776D01*
X171451522Y-100025465D01*
X171419500Y-100227648D01*
X171419500Y-100432351D01*
X171451522Y-100634534D01*
X171514781Y-100829223D01*
X171607715Y-101011613D01*
X171728028Y-101177213D01*
X171872786Y-101321971D01*
X172027749Y-101434556D01*
X172038390Y-101442287D01*
X172129840Y-101488883D01*
X172131080Y-101489515D01*
X172181876Y-101537490D01*
X172198671Y-101605311D01*
X172176134Y-101671446D01*
X172131080Y-101710485D01*
X172038386Y-101757715D01*
X171872786Y-101878028D01*
X171728028Y-102022786D01*
X171607715Y-102188386D01*
X171514781Y-102370776D01*
X171451522Y-102565465D01*
X171419500Y-102767648D01*
X171419500Y-102972351D01*
X171451522Y-103174534D01*
X171514781Y-103369223D01*
X171607715Y-103551613D01*
X171728028Y-103717213D01*
X171872786Y-103861971D01*
X172027749Y-103974556D01*
X172038390Y-103982287D01*
X172129840Y-104028883D01*
X172131080Y-104029515D01*
X172181876Y-104077490D01*
X172198671Y-104145311D01*
X172176134Y-104211446D01*
X172131080Y-104250485D01*
X172038386Y-104297715D01*
X171872786Y-104418028D01*
X171728028Y-104562786D01*
X171607715Y-104728386D01*
X171514781Y-104910776D01*
X171451522Y-105105465D01*
X171419500Y-105307648D01*
X171419500Y-105512351D01*
X171451522Y-105714534D01*
X171514781Y-105909223D01*
X171607715Y-106091613D01*
X171728028Y-106257213D01*
X171872786Y-106401971D01*
X172027749Y-106514556D01*
X172038390Y-106522287D01*
X172154607Y-106581503D01*
X172220776Y-106615218D01*
X172220778Y-106615218D01*
X172220781Y-106615220D01*
X172325137Y-106649127D01*
X172415465Y-106678477D01*
X172516557Y-106694488D01*
X172617648Y-106710500D01*
X172617649Y-106710500D01*
X172822351Y-106710500D01*
X172822352Y-106710500D01*
X173024534Y-106678477D01*
X173219219Y-106615220D01*
X173401610Y-106522287D01*
X173494590Y-106454732D01*
X173567213Y-106401971D01*
X173567215Y-106401968D01*
X173567219Y-106401966D01*
X173711966Y-106257219D01*
X173711968Y-106257215D01*
X173711971Y-106257213D01*
X173764732Y-106184590D01*
X173832287Y-106091610D01*
X173925220Y-105909219D01*
X173988477Y-105714534D01*
X174020500Y-105512352D01*
X174020500Y-105307648D01*
X173988477Y-105105466D01*
X173925220Y-104910781D01*
X173925218Y-104910778D01*
X173925218Y-104910776D01*
X173891503Y-104844607D01*
X173832287Y-104728390D01*
X173824556Y-104717749D01*
X173711971Y-104562786D01*
X173567213Y-104418028D01*
X173401614Y-104297715D01*
X173395006Y-104294348D01*
X173308917Y-104250483D01*
X173258123Y-104202511D01*
X173241328Y-104134690D01*
X173263865Y-104068555D01*
X173308917Y-104029516D01*
X173401610Y-103982287D01*
X173422770Y-103966913D01*
X173567213Y-103861971D01*
X173567215Y-103861968D01*
X173567219Y-103861966D01*
X173711966Y-103717219D01*
X173711968Y-103717215D01*
X173711971Y-103717213D01*
X173764732Y-103644590D01*
X173832287Y-103551610D01*
X173925220Y-103369219D01*
X173988477Y-103174534D01*
X174020500Y-102972352D01*
X174020500Y-102767648D01*
X173988477Y-102565466D01*
X173925220Y-102370781D01*
X173925218Y-102370778D01*
X173925218Y-102370776D01*
X173891503Y-102304607D01*
X173832287Y-102188390D01*
X173824556Y-102177749D01*
X173711971Y-102022786D01*
X173567213Y-101878028D01*
X173401614Y-101757715D01*
X173395006Y-101754348D01*
X173308917Y-101710483D01*
X173258123Y-101662511D01*
X173241328Y-101594690D01*
X173263865Y-101528555D01*
X173308917Y-101489516D01*
X173401610Y-101442287D01*
X173422770Y-101426913D01*
X173567213Y-101321971D01*
X173567215Y-101321968D01*
X173567219Y-101321966D01*
X173711966Y-101177219D01*
X173711968Y-101177215D01*
X173711971Y-101177213D01*
X173764732Y-101104590D01*
X173832287Y-101011610D01*
X173925220Y-100829219D01*
X173988477Y-100634534D01*
X174020500Y-100432352D01*
X174020500Y-100227648D01*
X173988477Y-100025466D01*
X173925220Y-99830781D01*
X173925218Y-99830778D01*
X173925218Y-99830776D01*
X173891503Y-99764607D01*
X173832287Y-99648390D01*
X173824556Y-99637749D01*
X173711971Y-99482786D01*
X173567213Y-99338028D01*
X173401614Y-99217715D01*
X173395006Y-99214348D01*
X173308917Y-99170483D01*
X173258123Y-99122511D01*
X173241328Y-99054690D01*
X173263865Y-98988555D01*
X173308917Y-98949516D01*
X173401610Y-98902287D01*
X173422770Y-98886913D01*
X173567213Y-98781971D01*
X173567215Y-98781968D01*
X173567219Y-98781966D01*
X173711966Y-98637219D01*
X173711968Y-98637215D01*
X173711971Y-98637213D01*
X173764732Y-98564590D01*
X173832287Y-98471610D01*
X173925220Y-98289219D01*
X173988477Y-98094534D01*
X174020500Y-97892352D01*
X174020500Y-97687648D01*
X173988477Y-97485466D01*
X173925220Y-97290781D01*
X173925218Y-97290778D01*
X173925218Y-97290776D01*
X173891503Y-97224607D01*
X173832287Y-97108390D01*
X173824556Y-97097749D01*
X173711971Y-96942786D01*
X173567213Y-96798028D01*
X173401614Y-96677715D01*
X173395006Y-96674348D01*
X173308917Y-96630483D01*
X173258123Y-96582511D01*
X173241328Y-96514690D01*
X173263865Y-96448555D01*
X173308917Y-96409516D01*
X173401610Y-96362287D01*
X173422770Y-96346913D01*
X173567213Y-96241971D01*
X173567215Y-96241968D01*
X173567219Y-96241966D01*
X173711966Y-96097219D01*
X173711968Y-96097215D01*
X173711971Y-96097213D01*
X173832284Y-95931614D01*
X173832285Y-95931613D01*
X173832287Y-95931610D01*
X173839117Y-95918204D01*
X173887091Y-95867409D01*
X173949602Y-95850500D01*
X176121637Y-95850500D01*
X176151912Y-95854253D01*
X176164471Y-95857415D01*
X176168216Y-95859577D01*
X176320943Y-95900501D01*
X176335604Y-95900501D01*
X176350511Y-95904254D01*
X176367906Y-95914498D01*
X176387275Y-95920186D01*
X176389127Y-95921399D01*
X176520814Y-96009390D01*
X176520827Y-96009397D01*
X176666498Y-96069735D01*
X176666503Y-96069737D01*
X176821153Y-96100499D01*
X176821156Y-96100500D01*
X176821158Y-96100500D01*
X176978844Y-96100500D01*
X176978845Y-96100499D01*
X177133497Y-96069737D01*
X177279179Y-96009394D01*
X177410289Y-95921789D01*
X177521789Y-95810289D01*
X177609394Y-95679179D01*
X177669737Y-95533497D01*
X177700500Y-95378842D01*
X177700500Y-95221158D01*
X177700500Y-95221155D01*
X177700499Y-95221153D01*
X177669738Y-95066510D01*
X177669737Y-95066503D01*
X177669735Y-95066498D01*
X177609397Y-94920827D01*
X177609390Y-94920814D01*
X177521789Y-94789711D01*
X177521786Y-94789707D01*
X177410292Y-94678213D01*
X177410288Y-94678210D01*
X177279185Y-94590609D01*
X177279172Y-94590602D01*
X177133501Y-94530264D01*
X177133489Y-94530261D01*
X176978845Y-94499500D01*
X176978842Y-94499500D01*
X176821158Y-94499500D01*
X176821155Y-94499500D01*
X176666510Y-94530261D01*
X176666498Y-94530264D01*
X176520822Y-94590604D01*
X176520818Y-94590606D01*
X176463956Y-94628601D01*
X176445912Y-94634250D01*
X176430002Y-94644476D01*
X176399039Y-94648927D01*
X176397279Y-94649479D01*
X176395067Y-94649499D01*
X176270943Y-94649499D01*
X176270939Y-94649499D01*
X176263332Y-94649500D01*
X176263331Y-94649499D01*
X176263331Y-94649500D01*
X173949602Y-94649500D01*
X173882563Y-94629815D01*
X173839117Y-94581795D01*
X173832284Y-94568385D01*
X173711971Y-94402786D01*
X173567213Y-94258028D01*
X173401614Y-94137715D01*
X173395006Y-94134348D01*
X173308917Y-94090483D01*
X173258123Y-94042511D01*
X173241328Y-93974690D01*
X173263865Y-93908555D01*
X173308917Y-93869516D01*
X173401610Y-93822287D01*
X173422770Y-93806913D01*
X173567213Y-93701971D01*
X173567215Y-93701968D01*
X173567219Y-93701966D01*
X173711966Y-93557219D01*
X173711968Y-93557215D01*
X173711971Y-93557213D01*
X173764732Y-93484590D01*
X173832287Y-93391610D01*
X173925220Y-93209219D01*
X173988477Y-93014534D01*
X174020500Y-92812352D01*
X174020500Y-92607648D01*
X173988477Y-92405466D01*
X173925220Y-92210781D01*
X173925218Y-92210778D01*
X173925218Y-92210776D01*
X173891503Y-92144607D01*
X173832287Y-92028390D01*
X173824556Y-92017749D01*
X173711971Y-91862786D01*
X173567213Y-91718028D01*
X173401614Y-91597715D01*
X173395006Y-91594348D01*
X173308917Y-91550483D01*
X173258123Y-91502511D01*
X173241328Y-91434690D01*
X173263865Y-91368555D01*
X173308917Y-91329516D01*
X173401610Y-91282287D01*
X173446774Y-91249474D01*
X173567213Y-91161971D01*
X173567215Y-91161968D01*
X173567219Y-91161966D01*
X173711966Y-91017219D01*
X173711968Y-91017215D01*
X173711971Y-91017213D01*
X173764732Y-90944590D01*
X173832287Y-90851610D01*
X173925220Y-90669219D01*
X173988477Y-90474534D01*
X174020500Y-90272352D01*
X174020500Y-90067648D01*
X174013755Y-90025060D01*
X173988477Y-89865465D01*
X173931801Y-89691036D01*
X173925220Y-89670781D01*
X173925218Y-89670778D01*
X173925218Y-89670776D01*
X173891503Y-89604607D01*
X173832287Y-89488390D01*
X173800092Y-89444077D01*
X173711971Y-89322786D01*
X173567219Y-89178034D01*
X173530930Y-89151669D01*
X173488264Y-89096339D01*
X173482285Y-89026726D01*
X173514890Y-88964931D01*
X173575728Y-88930573D01*
X173590562Y-88928060D01*
X173627483Y-88924091D01*
X173746193Y-88879815D01*
X173762331Y-88873796D01*
X173877546Y-88787546D01*
X173963796Y-88672331D01*
X174014091Y-88537483D01*
X174020500Y-88477873D01*
X174020499Y-86782128D01*
X174014091Y-86722517D01*
X173963884Y-86587906D01*
X173963797Y-86587671D01*
X173963793Y-86587664D01*
X173877547Y-86472455D01*
X173877544Y-86472452D01*
X173762335Y-86386206D01*
X173762328Y-86386202D01*
X173627482Y-86335908D01*
X173627483Y-86335908D01*
X173567883Y-86329501D01*
X173567881Y-86329500D01*
X173567873Y-86329500D01*
X173567864Y-86329500D01*
X171872129Y-86329500D01*
X171872123Y-86329501D01*
X171812516Y-86335908D01*
X171677671Y-86386202D01*
X171677664Y-86386206D01*
X171562455Y-86472452D01*
X171562452Y-86472455D01*
X171476206Y-86587664D01*
X171476202Y-86587671D01*
X171425908Y-86722517D01*
X171421874Y-86760043D01*
X171419501Y-86782123D01*
X171419500Y-86782135D01*
X171419500Y-88029902D01*
X171399815Y-88096941D01*
X171383181Y-88117583D01*
X170637584Y-88863181D01*
X170576261Y-88896666D01*
X170549903Y-88899500D01*
X169756859Y-88899500D01*
X169689820Y-88879815D01*
X169644065Y-88827011D01*
X169634121Y-88757853D01*
X169663146Y-88694297D01*
X169683974Y-88675181D01*
X169687901Y-88672328D01*
X169757219Y-88621966D01*
X169901966Y-88477219D01*
X169901968Y-88477215D01*
X169901971Y-88477213D01*
X169963109Y-88393062D01*
X170022287Y-88311610D01*
X170115220Y-88129219D01*
X170178477Y-87934534D01*
X170210500Y-87732352D01*
X170210500Y-87527648D01*
X170202257Y-87475606D01*
X170178477Y-87325465D01*
X170115218Y-87130776D01*
X170069515Y-87041080D01*
X170022287Y-86948390D01*
X170014556Y-86937749D01*
X169901971Y-86782786D01*
X169757213Y-86638028D01*
X169591613Y-86517715D01*
X169591612Y-86517714D01*
X169591610Y-86517713D01*
X169503487Y-86472812D01*
X169409223Y-86424781D01*
X169214534Y-86361522D01*
X169039995Y-86333878D01*
X169012352Y-86329500D01*
X168807648Y-86329500D01*
X168783329Y-86333351D01*
X168605465Y-86361522D01*
X168410776Y-86424781D01*
X168228386Y-86517715D01*
X168062786Y-86638028D01*
X167918028Y-86782786D01*
X167797715Y-86948386D01*
X167750485Y-87041080D01*
X167702510Y-87091876D01*
X167634689Y-87108671D01*
X167568554Y-87086134D01*
X167529515Y-87041080D01*
X167528883Y-87039840D01*
X167482287Y-86948390D01*
X167474556Y-86937749D01*
X167361971Y-86782786D01*
X167217213Y-86638028D01*
X167051613Y-86517715D01*
X167051612Y-86517714D01*
X167051610Y-86517713D01*
X166963487Y-86472812D01*
X166869223Y-86424781D01*
X166674534Y-86361522D01*
X166499995Y-86333878D01*
X166472352Y-86329500D01*
X166267648Y-86329500D01*
X166243329Y-86333351D01*
X166065465Y-86361522D01*
X165870776Y-86424781D01*
X165688386Y-86517715D01*
X165522786Y-86638028D01*
X165378028Y-86782786D01*
X165257715Y-86948386D01*
X165210485Y-87041080D01*
X165162510Y-87091876D01*
X165094689Y-87108671D01*
X165028554Y-87086134D01*
X164989515Y-87041080D01*
X164988883Y-87039840D01*
X164942287Y-86948390D01*
X164934556Y-86937749D01*
X164821971Y-86782786D01*
X164677213Y-86638028D01*
X164511613Y-86517715D01*
X164511612Y-86517714D01*
X164511610Y-86517713D01*
X164423487Y-86472812D01*
X164329223Y-86424781D01*
X164134534Y-86361522D01*
X163959995Y-86333878D01*
X163932352Y-86329500D01*
X163727648Y-86329500D01*
X163703329Y-86333351D01*
X163525465Y-86361522D01*
X163330776Y-86424781D01*
X163148386Y-86517715D01*
X162982786Y-86638028D01*
X162838032Y-86782782D01*
X162838026Y-86782789D01*
X162811227Y-86819675D01*
X162755897Y-86862341D01*
X162686284Y-86868319D01*
X162624489Y-86835712D01*
X162590132Y-86774873D01*
X162587620Y-86760043D01*
X162583596Y-86722620D01*
X162533354Y-86587913D01*
X162533350Y-86587906D01*
X162447190Y-86472812D01*
X162447187Y-86472809D01*
X162332093Y-86386649D01*
X162332086Y-86386645D01*
X162197379Y-86336403D01*
X162197372Y-86336401D01*
X162137844Y-86330000D01*
X161540000Y-86330000D01*
X161540000Y-87314314D01*
X161535606Y-87309920D01*
X161444394Y-87257259D01*
X161342661Y-87230000D01*
X161237339Y-87230000D01*
X161135606Y-87257259D01*
X161044394Y-87309920D01*
X161040000Y-87314314D01*
X161040000Y-86330000D01*
X160442155Y-86330000D01*
X160382627Y-86336401D01*
X160382620Y-86336403D01*
X160247913Y-86386645D01*
X160247906Y-86386649D01*
X160132812Y-86472809D01*
X160132809Y-86472812D01*
X160046649Y-86587906D01*
X160046645Y-86587913D01*
X159996403Y-86722620D01*
X159996401Y-86722627D01*
X159990000Y-86782155D01*
X158471340Y-86782155D01*
X158327219Y-86638034D01*
X158327213Y-86638028D01*
X158161613Y-86517715D01*
X158161612Y-86517714D01*
X158161610Y-86517713D01*
X158073487Y-86472812D01*
X157979223Y-86424781D01*
X157784534Y-86361522D01*
X157609995Y-86333878D01*
X157582352Y-86329500D01*
X157377648Y-86329500D01*
X157353329Y-86333351D01*
X157175465Y-86361522D01*
X156980776Y-86424781D01*
X156798386Y-86517715D01*
X156632786Y-86638028D01*
X156488028Y-86782786D01*
X156367715Y-86948386D01*
X156274781Y-87130776D01*
X156211522Y-87325465D01*
X156179500Y-87527648D01*
X149750500Y-87527648D01*
X149750500Y-84624500D01*
X149770185Y-84557461D01*
X149822989Y-84511706D01*
X149874500Y-84500500D01*
X179625500Y-84500500D01*
X179692539Y-84520185D01*
G37*
G04 #@! TD.AperFunction*
M02*
