G04 #@! TF.GenerationSoftware,KiCad,Pcbnew,9.0.2*
G04 #@! TF.CreationDate,2026-02-04T16:46:47-05:00*
G04 #@! TF.ProjectId,PocketStockV2,506f636b-6574-4537-946f-636b56322e6b,rev?*
G04 #@! TF.SameCoordinates,Original*
G04 #@! TF.FileFunction,Soldermask,Top*
G04 #@! TF.FilePolarity,Negative*
%FSLAX46Y46*%
G04 Gerber Fmt 4.6, Leading zero omitted, Abs format (unit mm)*
G04 Created by KiCad (PCBNEW 9.0.2) date 2026-02-04 16:46:47*
%MOMM*%
%LPD*%
G01*
G04 APERTURE LIST*
G04 APERTURE END LIST*
G36*
X151700285Y-119593060D02*
G01*
X151881397Y-119668079D01*
X152044393Y-119776990D01*
X152183010Y-119915607D01*
X152291921Y-120078603D01*
X152366940Y-120259715D01*
X152405185Y-120451983D01*
X152405185Y-120648017D01*
X152366940Y-120840285D01*
X152291921Y-121021397D01*
X152183010Y-121184393D01*
X152044393Y-121323010D01*
X151881397Y-121431921D01*
X151700285Y-121506940D01*
X151508017Y-121545185D01*
X151311983Y-121545185D01*
X151119715Y-121506940D01*
X150938603Y-121431921D01*
X150775607Y-121323010D01*
X150636990Y-121184393D01*
X150528079Y-121021397D01*
X150453060Y-120840285D01*
X150414815Y-120648017D01*
X150414815Y-120451983D01*
X150453060Y-120259715D01*
X150528079Y-120078603D01*
X150636990Y-119915607D01*
X150775607Y-119776990D01*
X150938603Y-119668079D01*
X151119715Y-119593060D01*
X151311983Y-119554815D01*
X151508017Y-119554815D01*
X151700285Y-119593060D01*
G37*
G36*
X158200285Y-119593060D02*
G01*
X158381397Y-119668079D01*
X158544393Y-119776990D01*
X158683010Y-119915607D01*
X158791921Y-120078603D01*
X158866940Y-120259715D01*
X158905185Y-120451983D01*
X158905185Y-120648017D01*
X158866940Y-120840285D01*
X158791921Y-121021397D01*
X158683010Y-121184393D01*
X158544393Y-121323010D01*
X158381397Y-121431921D01*
X158200285Y-121506940D01*
X158008017Y-121545185D01*
X157811983Y-121545185D01*
X157619715Y-121506940D01*
X157438603Y-121431921D01*
X157275607Y-121323010D01*
X157136990Y-121184393D01*
X157028079Y-121021397D01*
X156953060Y-120840285D01*
X156914815Y-120648017D01*
X156914815Y-120451983D01*
X156953060Y-120259715D01*
X157028079Y-120078603D01*
X157136990Y-119915607D01*
X157275607Y-119776990D01*
X157438603Y-119668079D01*
X157619715Y-119593060D01*
X157811983Y-119554815D01*
X158008017Y-119554815D01*
X158200285Y-119593060D01*
G37*
G36*
X161700285Y-119543060D02*
G01*
X161881397Y-119618079D01*
X162044393Y-119726990D01*
X162183010Y-119865607D01*
X162291921Y-120028603D01*
X162366940Y-120209715D01*
X162405185Y-120401983D01*
X162405185Y-120598017D01*
X162366940Y-120790285D01*
X162291921Y-120971397D01*
X162183010Y-121134393D01*
X162044393Y-121273010D01*
X161881397Y-121381921D01*
X161700285Y-121456940D01*
X161508017Y-121495185D01*
X161311983Y-121495185D01*
X161119715Y-121456940D01*
X160938603Y-121381921D01*
X160775607Y-121273010D01*
X160636990Y-121134393D01*
X160528079Y-120971397D01*
X160453060Y-120790285D01*
X160414815Y-120598017D01*
X160414815Y-120401983D01*
X160453060Y-120209715D01*
X160528079Y-120028603D01*
X160636990Y-119865607D01*
X160775607Y-119726990D01*
X160938603Y-119618079D01*
X161119715Y-119543060D01*
X161311983Y-119504815D01*
X161508017Y-119504815D01*
X161700285Y-119543060D01*
G37*
G36*
X168200285Y-119543060D02*
G01*
X168381397Y-119618079D01*
X168544393Y-119726990D01*
X168683010Y-119865607D01*
X168791921Y-120028603D01*
X168866940Y-120209715D01*
X168905185Y-120401983D01*
X168905185Y-120598017D01*
X168866940Y-120790285D01*
X168791921Y-120971397D01*
X168683010Y-121134393D01*
X168544393Y-121273010D01*
X168381397Y-121381921D01*
X168200285Y-121456940D01*
X168008017Y-121495185D01*
X167811983Y-121495185D01*
X167619715Y-121456940D01*
X167438603Y-121381921D01*
X167275607Y-121273010D01*
X167136990Y-121134393D01*
X167028079Y-120971397D01*
X166953060Y-120790285D01*
X166914815Y-120598017D01*
X166914815Y-120401983D01*
X166953060Y-120209715D01*
X167028079Y-120028603D01*
X167136990Y-119865607D01*
X167275607Y-119726990D01*
X167438603Y-119618079D01*
X167619715Y-119543060D01*
X167811983Y-119504815D01*
X168008017Y-119504815D01*
X168200285Y-119543060D01*
G37*
G36*
X171700285Y-119543060D02*
G01*
X171881397Y-119618079D01*
X172044393Y-119726990D01*
X172183010Y-119865607D01*
X172291921Y-120028603D01*
X172366940Y-120209715D01*
X172405185Y-120401983D01*
X172405185Y-120598017D01*
X172366940Y-120790285D01*
X172291921Y-120971397D01*
X172183010Y-121134393D01*
X172044393Y-121273010D01*
X171881397Y-121381921D01*
X171700285Y-121456940D01*
X171508017Y-121495185D01*
X171311983Y-121495185D01*
X171119715Y-121456940D01*
X170938603Y-121381921D01*
X170775607Y-121273010D01*
X170636990Y-121134393D01*
X170528079Y-120971397D01*
X170453060Y-120790285D01*
X170414815Y-120598017D01*
X170414815Y-120401983D01*
X170453060Y-120209715D01*
X170528079Y-120028603D01*
X170636990Y-119865607D01*
X170775607Y-119726990D01*
X170938603Y-119618079D01*
X171119715Y-119543060D01*
X171311983Y-119504815D01*
X171508017Y-119504815D01*
X171700285Y-119543060D01*
G37*
G36*
X178200285Y-119543060D02*
G01*
X178381397Y-119618079D01*
X178544393Y-119726990D01*
X178683010Y-119865607D01*
X178791921Y-120028603D01*
X178866940Y-120209715D01*
X178905185Y-120401983D01*
X178905185Y-120598017D01*
X178866940Y-120790285D01*
X178791921Y-120971397D01*
X178683010Y-121134393D01*
X178544393Y-121273010D01*
X178381397Y-121381921D01*
X178200285Y-121456940D01*
X178008017Y-121495185D01*
X177811983Y-121495185D01*
X177619715Y-121456940D01*
X177438603Y-121381921D01*
X177275607Y-121273010D01*
X177136990Y-121134393D01*
X177028079Y-120971397D01*
X176953060Y-120790285D01*
X176914815Y-120598017D01*
X176914815Y-120401983D01*
X176953060Y-120209715D01*
X177028079Y-120028603D01*
X177136990Y-119865607D01*
X177275607Y-119726990D01*
X177438603Y-119618079D01*
X177619715Y-119543060D01*
X177811983Y-119504815D01*
X178008017Y-119504815D01*
X178200285Y-119543060D01*
G37*
G36*
X151700285Y-115093060D02*
G01*
X151881397Y-115168079D01*
X152044393Y-115276990D01*
X152183010Y-115415607D01*
X152291921Y-115578603D01*
X152366940Y-115759715D01*
X152405185Y-115951983D01*
X152405185Y-116148017D01*
X152366940Y-116340285D01*
X152291921Y-116521397D01*
X152183010Y-116684393D01*
X152044393Y-116823010D01*
X151881397Y-116931921D01*
X151700285Y-117006940D01*
X151508017Y-117045185D01*
X151311983Y-117045185D01*
X151119715Y-117006940D01*
X150938603Y-116931921D01*
X150775607Y-116823010D01*
X150636990Y-116684393D01*
X150528079Y-116521397D01*
X150453060Y-116340285D01*
X150414815Y-116148017D01*
X150414815Y-115951983D01*
X150453060Y-115759715D01*
X150528079Y-115578603D01*
X150636990Y-115415607D01*
X150775607Y-115276990D01*
X150938603Y-115168079D01*
X151119715Y-115093060D01*
X151311983Y-115054815D01*
X151508017Y-115054815D01*
X151700285Y-115093060D01*
G37*
G36*
X158200285Y-115093060D02*
G01*
X158381397Y-115168079D01*
X158544393Y-115276990D01*
X158683010Y-115415607D01*
X158791921Y-115578603D01*
X158866940Y-115759715D01*
X158905185Y-115951983D01*
X158905185Y-116148017D01*
X158866940Y-116340285D01*
X158791921Y-116521397D01*
X158683010Y-116684393D01*
X158544393Y-116823010D01*
X158381397Y-116931921D01*
X158200285Y-117006940D01*
X158008017Y-117045185D01*
X157811983Y-117045185D01*
X157619715Y-117006940D01*
X157438603Y-116931921D01*
X157275607Y-116823010D01*
X157136990Y-116684393D01*
X157028079Y-116521397D01*
X156953060Y-116340285D01*
X156914815Y-116148017D01*
X156914815Y-115951983D01*
X156953060Y-115759715D01*
X157028079Y-115578603D01*
X157136990Y-115415607D01*
X157275607Y-115276990D01*
X157438603Y-115168079D01*
X157619715Y-115093060D01*
X157811983Y-115054815D01*
X158008017Y-115054815D01*
X158200285Y-115093060D01*
G37*
G36*
X161700285Y-115043060D02*
G01*
X161881397Y-115118079D01*
X162044393Y-115226990D01*
X162183010Y-115365607D01*
X162291921Y-115528603D01*
X162366940Y-115709715D01*
X162405185Y-115901983D01*
X162405185Y-116098017D01*
X162366940Y-116290285D01*
X162291921Y-116471397D01*
X162183010Y-116634393D01*
X162044393Y-116773010D01*
X161881397Y-116881921D01*
X161700285Y-116956940D01*
X161508017Y-116995185D01*
X161311983Y-116995185D01*
X161119715Y-116956940D01*
X160938603Y-116881921D01*
X160775607Y-116773010D01*
X160636990Y-116634393D01*
X160528079Y-116471397D01*
X160453060Y-116290285D01*
X160414815Y-116098017D01*
X160414815Y-115901983D01*
X160453060Y-115709715D01*
X160528079Y-115528603D01*
X160636990Y-115365607D01*
X160775607Y-115226990D01*
X160938603Y-115118079D01*
X161119715Y-115043060D01*
X161311983Y-115004815D01*
X161508017Y-115004815D01*
X161700285Y-115043060D01*
G37*
G36*
X168200285Y-115043060D02*
G01*
X168381397Y-115118079D01*
X168544393Y-115226990D01*
X168683010Y-115365607D01*
X168791921Y-115528603D01*
X168866940Y-115709715D01*
X168905185Y-115901983D01*
X168905185Y-116098017D01*
X168866940Y-116290285D01*
X168791921Y-116471397D01*
X168683010Y-116634393D01*
X168544393Y-116773010D01*
X168381397Y-116881921D01*
X168200285Y-116956940D01*
X168008017Y-116995185D01*
X167811983Y-116995185D01*
X167619715Y-116956940D01*
X167438603Y-116881921D01*
X167275607Y-116773010D01*
X167136990Y-116634393D01*
X167028079Y-116471397D01*
X166953060Y-116290285D01*
X166914815Y-116098017D01*
X166914815Y-115901983D01*
X166953060Y-115709715D01*
X167028079Y-115528603D01*
X167136990Y-115365607D01*
X167275607Y-115226990D01*
X167438603Y-115118079D01*
X167619715Y-115043060D01*
X167811983Y-115004815D01*
X168008017Y-115004815D01*
X168200285Y-115043060D01*
G37*
G36*
X171700285Y-115043060D02*
G01*
X171881397Y-115118079D01*
X172044393Y-115226990D01*
X172183010Y-115365607D01*
X172291921Y-115528603D01*
X172366940Y-115709715D01*
X172405185Y-115901983D01*
X172405185Y-116098017D01*
X172366940Y-116290285D01*
X172291921Y-116471397D01*
X172183010Y-116634393D01*
X172044393Y-116773010D01*
X171881397Y-116881921D01*
X171700285Y-116956940D01*
X171508017Y-116995185D01*
X171311983Y-116995185D01*
X171119715Y-116956940D01*
X170938603Y-116881921D01*
X170775607Y-116773010D01*
X170636990Y-116634393D01*
X170528079Y-116471397D01*
X170453060Y-116290285D01*
X170414815Y-116098017D01*
X170414815Y-115901983D01*
X170453060Y-115709715D01*
X170528079Y-115528603D01*
X170636990Y-115365607D01*
X170775607Y-115226990D01*
X170938603Y-115118079D01*
X171119715Y-115043060D01*
X171311983Y-115004815D01*
X171508017Y-115004815D01*
X171700285Y-115043060D01*
G37*
G36*
X178200285Y-115043060D02*
G01*
X178381397Y-115118079D01*
X178544393Y-115226990D01*
X178683010Y-115365607D01*
X178791921Y-115528603D01*
X178866940Y-115709715D01*
X178905185Y-115901983D01*
X178905185Y-116098017D01*
X178866940Y-116290285D01*
X178791921Y-116471397D01*
X178683010Y-116634393D01*
X178544393Y-116773010D01*
X178381397Y-116881921D01*
X178200285Y-116956940D01*
X178008017Y-116995185D01*
X177811983Y-116995185D01*
X177619715Y-116956940D01*
X177438603Y-116881921D01*
X177275607Y-116773010D01*
X177136990Y-116634393D01*
X177028079Y-116471397D01*
X176953060Y-116290285D01*
X176914815Y-116098017D01*
X176914815Y-115901983D01*
X176953060Y-115709715D01*
X177028079Y-115528603D01*
X177136990Y-115365607D01*
X177275607Y-115226990D01*
X177438603Y-115118079D01*
X177619715Y-115043060D01*
X177811983Y-115004815D01*
X178008017Y-115004815D01*
X178200285Y-115043060D01*
G37*
G36*
X157712228Y-104644448D02*
G01*
X157857117Y-104704463D01*
X157987515Y-104791592D01*
X158098408Y-104902485D01*
X158185537Y-105032883D01*
X158245552Y-105177772D01*
X158276148Y-105331586D01*
X158276148Y-105488414D01*
X158245552Y-105642228D01*
X158185537Y-105787117D01*
X158098408Y-105917515D01*
X157987515Y-106028408D01*
X157857117Y-106115537D01*
X157712228Y-106175552D01*
X157558414Y-106206148D01*
X157401586Y-106206148D01*
X157247772Y-106175552D01*
X157102883Y-106115537D01*
X156972485Y-106028408D01*
X156861592Y-105917515D01*
X156774463Y-105787117D01*
X156714448Y-105642228D01*
X156683852Y-105488414D01*
X156683852Y-105331586D01*
X156714448Y-105177772D01*
X156774463Y-105032883D01*
X156861592Y-104902485D01*
X156972485Y-104791592D01*
X157102883Y-104704463D01*
X157247772Y-104644448D01*
X157401586Y-104613852D01*
X157558414Y-104613852D01*
X157712228Y-104644448D01*
G37*
G36*
X172952228Y-104644448D02*
G01*
X173097117Y-104704463D01*
X173227515Y-104791592D01*
X173338408Y-104902485D01*
X173425537Y-105032883D01*
X173485552Y-105177772D01*
X173516148Y-105331586D01*
X173516148Y-105488414D01*
X173485552Y-105642228D01*
X173425537Y-105787117D01*
X173338408Y-105917515D01*
X173227515Y-106028408D01*
X173097117Y-106115537D01*
X172952228Y-106175552D01*
X172798414Y-106206148D01*
X172641586Y-106206148D01*
X172487772Y-106175552D01*
X172342883Y-106115537D01*
X172212485Y-106028408D01*
X172101592Y-105917515D01*
X172014463Y-105787117D01*
X171954448Y-105642228D01*
X171923852Y-105488414D01*
X171923852Y-105331586D01*
X171954448Y-105177772D01*
X172014463Y-105032883D01*
X172101592Y-104902485D01*
X172212485Y-104791592D01*
X172342883Y-104704463D01*
X172487772Y-104644448D01*
X172641586Y-104613852D01*
X172798414Y-104613852D01*
X172952228Y-104644448D01*
G37*
G36*
X157712228Y-102104448D02*
G01*
X157857117Y-102164463D01*
X157987515Y-102251592D01*
X158098408Y-102362485D01*
X158185537Y-102492883D01*
X158245552Y-102637772D01*
X158276148Y-102791586D01*
X158276148Y-102948414D01*
X158245552Y-103102228D01*
X158185537Y-103247117D01*
X158098408Y-103377515D01*
X157987515Y-103488408D01*
X157857117Y-103575537D01*
X157712228Y-103635552D01*
X157558414Y-103666148D01*
X157401586Y-103666148D01*
X157247772Y-103635552D01*
X157102883Y-103575537D01*
X156972485Y-103488408D01*
X156861592Y-103377515D01*
X156774463Y-103247117D01*
X156714448Y-103102228D01*
X156683852Y-102948414D01*
X156683852Y-102791586D01*
X156714448Y-102637772D01*
X156774463Y-102492883D01*
X156861592Y-102362485D01*
X156972485Y-102251592D01*
X157102883Y-102164463D01*
X157247772Y-102104448D01*
X157401586Y-102073852D01*
X157558414Y-102073852D01*
X157712228Y-102104448D01*
G37*
G36*
X172952228Y-102104448D02*
G01*
X173097117Y-102164463D01*
X173227515Y-102251592D01*
X173338408Y-102362485D01*
X173425537Y-102492883D01*
X173485552Y-102637772D01*
X173516148Y-102791586D01*
X173516148Y-102948414D01*
X173485552Y-103102228D01*
X173425537Y-103247117D01*
X173338408Y-103377515D01*
X173227515Y-103488408D01*
X173097117Y-103575537D01*
X172952228Y-103635552D01*
X172798414Y-103666148D01*
X172641586Y-103666148D01*
X172487772Y-103635552D01*
X172342883Y-103575537D01*
X172212485Y-103488408D01*
X172101592Y-103377515D01*
X172014463Y-103247117D01*
X171954448Y-103102228D01*
X171923852Y-102948414D01*
X171923852Y-102791586D01*
X171954448Y-102637772D01*
X172014463Y-102492883D01*
X172101592Y-102362485D01*
X172212485Y-102251592D01*
X172342883Y-102164463D01*
X172487772Y-102104448D01*
X172641586Y-102073852D01*
X172798414Y-102073852D01*
X172952228Y-102104448D01*
G37*
G36*
X157712228Y-99564448D02*
G01*
X157857117Y-99624463D01*
X157987515Y-99711592D01*
X158098408Y-99822485D01*
X158185537Y-99952883D01*
X158245552Y-100097772D01*
X158276148Y-100251586D01*
X158276148Y-100408414D01*
X158245552Y-100562228D01*
X158185537Y-100707117D01*
X158098408Y-100837515D01*
X157987515Y-100948408D01*
X157857117Y-101035537D01*
X157712228Y-101095552D01*
X157558414Y-101126148D01*
X157401586Y-101126148D01*
X157247772Y-101095552D01*
X157102883Y-101035537D01*
X156972485Y-100948408D01*
X156861592Y-100837515D01*
X156774463Y-100707117D01*
X156714448Y-100562228D01*
X156683852Y-100408414D01*
X156683852Y-100251586D01*
X156714448Y-100097772D01*
X156774463Y-99952883D01*
X156861592Y-99822485D01*
X156972485Y-99711592D01*
X157102883Y-99624463D01*
X157247772Y-99564448D01*
X157401586Y-99533852D01*
X157558414Y-99533852D01*
X157712228Y-99564448D01*
G37*
G36*
X172952228Y-99564448D02*
G01*
X173097117Y-99624463D01*
X173227515Y-99711592D01*
X173338408Y-99822485D01*
X173425537Y-99952883D01*
X173485552Y-100097772D01*
X173516148Y-100251586D01*
X173516148Y-100408414D01*
X173485552Y-100562228D01*
X173425537Y-100707117D01*
X173338408Y-100837515D01*
X173227515Y-100948408D01*
X173097117Y-101035537D01*
X172952228Y-101095552D01*
X172798414Y-101126148D01*
X172641586Y-101126148D01*
X172487772Y-101095552D01*
X172342883Y-101035537D01*
X172212485Y-100948408D01*
X172101592Y-100837515D01*
X172014463Y-100707117D01*
X171954448Y-100562228D01*
X171923852Y-100408414D01*
X171923852Y-100251586D01*
X171954448Y-100097772D01*
X172014463Y-99952883D01*
X172101592Y-99822485D01*
X172212485Y-99711592D01*
X172342883Y-99624463D01*
X172487772Y-99564448D01*
X172641586Y-99533852D01*
X172798414Y-99533852D01*
X172952228Y-99564448D01*
G37*
G36*
X157712228Y-97024448D02*
G01*
X157857117Y-97084463D01*
X157987515Y-97171592D01*
X158098408Y-97282485D01*
X158185537Y-97412883D01*
X158245552Y-97557772D01*
X158276148Y-97711586D01*
X158276148Y-97868414D01*
X158245552Y-98022228D01*
X158185537Y-98167117D01*
X158098408Y-98297515D01*
X157987515Y-98408408D01*
X157857117Y-98495537D01*
X157712228Y-98555552D01*
X157558414Y-98586148D01*
X157401586Y-98586148D01*
X157247772Y-98555552D01*
X157102883Y-98495537D01*
X156972485Y-98408408D01*
X156861592Y-98297515D01*
X156774463Y-98167117D01*
X156714448Y-98022228D01*
X156683852Y-97868414D01*
X156683852Y-97711586D01*
X156714448Y-97557772D01*
X156774463Y-97412883D01*
X156861592Y-97282485D01*
X156972485Y-97171592D01*
X157102883Y-97084463D01*
X157247772Y-97024448D01*
X157401586Y-96993852D01*
X157558414Y-96993852D01*
X157712228Y-97024448D01*
G37*
G36*
X172952228Y-97024448D02*
G01*
X173097117Y-97084463D01*
X173227515Y-97171592D01*
X173338408Y-97282485D01*
X173425537Y-97412883D01*
X173485552Y-97557772D01*
X173516148Y-97711586D01*
X173516148Y-97868414D01*
X173485552Y-98022228D01*
X173425537Y-98167117D01*
X173338408Y-98297515D01*
X173227515Y-98408408D01*
X173097117Y-98495537D01*
X172952228Y-98555552D01*
X172798414Y-98586148D01*
X172641586Y-98586148D01*
X172487772Y-98555552D01*
X172342883Y-98495537D01*
X172212485Y-98408408D01*
X172101592Y-98297515D01*
X172014463Y-98167117D01*
X171954448Y-98022228D01*
X171923852Y-97868414D01*
X171923852Y-97711586D01*
X171954448Y-97557772D01*
X172014463Y-97412883D01*
X172101592Y-97282485D01*
X172212485Y-97171592D01*
X172342883Y-97084463D01*
X172487772Y-97024448D01*
X172641586Y-96993852D01*
X172798414Y-96993852D01*
X172952228Y-97024448D01*
G37*
G36*
X157712228Y-94484448D02*
G01*
X157857117Y-94544463D01*
X157987515Y-94631592D01*
X158098408Y-94742485D01*
X158185537Y-94872883D01*
X158245552Y-95017772D01*
X158276148Y-95171586D01*
X158276148Y-95328414D01*
X158245552Y-95482228D01*
X158185537Y-95627117D01*
X158098408Y-95757515D01*
X157987515Y-95868408D01*
X157857117Y-95955537D01*
X157712228Y-96015552D01*
X157558414Y-96046148D01*
X157401586Y-96046148D01*
X157247772Y-96015552D01*
X157102883Y-95955537D01*
X156972485Y-95868408D01*
X156861592Y-95757515D01*
X156774463Y-95627117D01*
X156714448Y-95482228D01*
X156683852Y-95328414D01*
X156683852Y-95171586D01*
X156714448Y-95017772D01*
X156774463Y-94872883D01*
X156861592Y-94742485D01*
X156972485Y-94631592D01*
X157102883Y-94544463D01*
X157247772Y-94484448D01*
X157401586Y-94453852D01*
X157558414Y-94453852D01*
X157712228Y-94484448D01*
G37*
G36*
X172952228Y-94484448D02*
G01*
X173097117Y-94544463D01*
X173227515Y-94631592D01*
X173338408Y-94742485D01*
X173425537Y-94872883D01*
X173485552Y-95017772D01*
X173516148Y-95171586D01*
X173516148Y-95328414D01*
X173485552Y-95482228D01*
X173425537Y-95627117D01*
X173338408Y-95757515D01*
X173227515Y-95868408D01*
X173097117Y-95955537D01*
X172952228Y-96015552D01*
X172798414Y-96046148D01*
X172641586Y-96046148D01*
X172487772Y-96015552D01*
X172342883Y-95955537D01*
X172212485Y-95868408D01*
X172101592Y-95757515D01*
X172014463Y-95627117D01*
X171954448Y-95482228D01*
X171923852Y-95328414D01*
X171923852Y-95171586D01*
X171954448Y-95017772D01*
X172014463Y-94872883D01*
X172101592Y-94742485D01*
X172212485Y-94631592D01*
X172342883Y-94544463D01*
X172487772Y-94484448D01*
X172641586Y-94453852D01*
X172798414Y-94453852D01*
X172952228Y-94484448D01*
G37*
G36*
X157712228Y-91944448D02*
G01*
X157857117Y-92004463D01*
X157987515Y-92091592D01*
X158098408Y-92202485D01*
X158185537Y-92332883D01*
X158245552Y-92477772D01*
X158276148Y-92631586D01*
X158276148Y-92788414D01*
X158245552Y-92942228D01*
X158185537Y-93087117D01*
X158098408Y-93217515D01*
X157987515Y-93328408D01*
X157857117Y-93415537D01*
X157712228Y-93475552D01*
X157558414Y-93506148D01*
X157401586Y-93506148D01*
X157247772Y-93475552D01*
X157102883Y-93415537D01*
X156972485Y-93328408D01*
X156861592Y-93217515D01*
X156774463Y-93087117D01*
X156714448Y-92942228D01*
X156683852Y-92788414D01*
X156683852Y-92631586D01*
X156714448Y-92477772D01*
X156774463Y-92332883D01*
X156861592Y-92202485D01*
X156972485Y-92091592D01*
X157102883Y-92004463D01*
X157247772Y-91944448D01*
X157401586Y-91913852D01*
X157558414Y-91913852D01*
X157712228Y-91944448D01*
G37*
G36*
X172952228Y-91944448D02*
G01*
X173097117Y-92004463D01*
X173227515Y-92091592D01*
X173338408Y-92202485D01*
X173425537Y-92332883D01*
X173485552Y-92477772D01*
X173516148Y-92631586D01*
X173516148Y-92788414D01*
X173485552Y-92942228D01*
X173425537Y-93087117D01*
X173338408Y-93217515D01*
X173227515Y-93328408D01*
X173097117Y-93415537D01*
X172952228Y-93475552D01*
X172798414Y-93506148D01*
X172641586Y-93506148D01*
X172487772Y-93475552D01*
X172342883Y-93415537D01*
X172212485Y-93328408D01*
X172101592Y-93217515D01*
X172014463Y-93087117D01*
X171954448Y-92942228D01*
X171923852Y-92788414D01*
X171923852Y-92631586D01*
X171954448Y-92477772D01*
X172014463Y-92332883D01*
X172101592Y-92202485D01*
X172212485Y-92091592D01*
X172342883Y-92004463D01*
X172487772Y-91944448D01*
X172641586Y-91913852D01*
X172798414Y-91913852D01*
X172952228Y-91944448D01*
G37*
G36*
X157712228Y-89404448D02*
G01*
X157857117Y-89464463D01*
X157987515Y-89551592D01*
X158098408Y-89662485D01*
X158185537Y-89792883D01*
X158245552Y-89937772D01*
X158276148Y-90091586D01*
X158276148Y-90248414D01*
X158245552Y-90402228D01*
X158185537Y-90547117D01*
X158098408Y-90677515D01*
X157987515Y-90788408D01*
X157857117Y-90875537D01*
X157712228Y-90935552D01*
X157558414Y-90966148D01*
X157401586Y-90966148D01*
X157247772Y-90935552D01*
X157102883Y-90875537D01*
X156972485Y-90788408D01*
X156861592Y-90677515D01*
X156774463Y-90547117D01*
X156714448Y-90402228D01*
X156683852Y-90248414D01*
X156683852Y-90091586D01*
X156714448Y-89937772D01*
X156774463Y-89792883D01*
X156861592Y-89662485D01*
X156972485Y-89551592D01*
X157102883Y-89464463D01*
X157247772Y-89404448D01*
X157401586Y-89373852D01*
X157558414Y-89373852D01*
X157712228Y-89404448D01*
G37*
G36*
X172952228Y-89404448D02*
G01*
X173097117Y-89464463D01*
X173227515Y-89551592D01*
X173338408Y-89662485D01*
X173425537Y-89792883D01*
X173485552Y-89937772D01*
X173516148Y-90091586D01*
X173516148Y-90248414D01*
X173485552Y-90402228D01*
X173425537Y-90547117D01*
X173338408Y-90677515D01*
X173227515Y-90788408D01*
X173097117Y-90875537D01*
X172952228Y-90935552D01*
X172798414Y-90966148D01*
X172641586Y-90966148D01*
X172487772Y-90935552D01*
X172342883Y-90875537D01*
X172212485Y-90788408D01*
X172101592Y-90677515D01*
X172014463Y-90547117D01*
X171954448Y-90402228D01*
X171923852Y-90248414D01*
X171923852Y-90091586D01*
X171954448Y-89937772D01*
X172014463Y-89792883D01*
X172101592Y-89662485D01*
X172212485Y-89551592D01*
X172342883Y-89464463D01*
X172487772Y-89404448D01*
X172641586Y-89373852D01*
X172798414Y-89373852D01*
X172952228Y-89404448D01*
G37*
G36*
X162090000Y-88430000D02*
G01*
X160490000Y-88430000D01*
X160490000Y-86830000D01*
X162090000Y-86830000D01*
X162090000Y-88430000D01*
G37*
G36*
X173520000Y-88430000D02*
G01*
X171920000Y-88430000D01*
X171920000Y-86830000D01*
X173520000Y-86830000D01*
X173520000Y-88430000D01*
G37*
G36*
X157712228Y-86864448D02*
G01*
X157857117Y-86924463D01*
X157987515Y-87011592D01*
X158098408Y-87122485D01*
X158185537Y-87252883D01*
X158245552Y-87397772D01*
X158276148Y-87551586D01*
X158276148Y-87708414D01*
X158245552Y-87862228D01*
X158185537Y-88007117D01*
X158098408Y-88137515D01*
X157987515Y-88248408D01*
X157857117Y-88335537D01*
X157712228Y-88395552D01*
X157558414Y-88426148D01*
X157401586Y-88426148D01*
X157247772Y-88395552D01*
X157102883Y-88335537D01*
X156972485Y-88248408D01*
X156861592Y-88137515D01*
X156774463Y-88007117D01*
X156714448Y-87862228D01*
X156683852Y-87708414D01*
X156683852Y-87551586D01*
X156714448Y-87397772D01*
X156774463Y-87252883D01*
X156861592Y-87122485D01*
X156972485Y-87011592D01*
X157102883Y-86924463D01*
X157247772Y-86864448D01*
X157401586Y-86833852D01*
X157558414Y-86833852D01*
X157712228Y-86864448D01*
G37*
G36*
X164062228Y-86864448D02*
G01*
X164207117Y-86924463D01*
X164337515Y-87011592D01*
X164448408Y-87122485D01*
X164535537Y-87252883D01*
X164595552Y-87397772D01*
X164626148Y-87551586D01*
X164626148Y-87708414D01*
X164595552Y-87862228D01*
X164535537Y-88007117D01*
X164448408Y-88137515D01*
X164337515Y-88248408D01*
X164207117Y-88335537D01*
X164062228Y-88395552D01*
X163908414Y-88426148D01*
X163751586Y-88426148D01*
X163597772Y-88395552D01*
X163452883Y-88335537D01*
X163322485Y-88248408D01*
X163211592Y-88137515D01*
X163124463Y-88007117D01*
X163064448Y-87862228D01*
X163033852Y-87708414D01*
X163033852Y-87551586D01*
X163064448Y-87397772D01*
X163124463Y-87252883D01*
X163211592Y-87122485D01*
X163322485Y-87011592D01*
X163452883Y-86924463D01*
X163597772Y-86864448D01*
X163751586Y-86833852D01*
X163908414Y-86833852D01*
X164062228Y-86864448D01*
G37*
G36*
X166602228Y-86864448D02*
G01*
X166747117Y-86924463D01*
X166877515Y-87011592D01*
X166988408Y-87122485D01*
X167075537Y-87252883D01*
X167135552Y-87397772D01*
X167166148Y-87551586D01*
X167166148Y-87708414D01*
X167135552Y-87862228D01*
X167075537Y-88007117D01*
X166988408Y-88137515D01*
X166877515Y-88248408D01*
X166747117Y-88335537D01*
X166602228Y-88395552D01*
X166448414Y-88426148D01*
X166291586Y-88426148D01*
X166137772Y-88395552D01*
X165992883Y-88335537D01*
X165862485Y-88248408D01*
X165751592Y-88137515D01*
X165664463Y-88007117D01*
X165604448Y-87862228D01*
X165573852Y-87708414D01*
X165573852Y-87551586D01*
X165604448Y-87397772D01*
X165664463Y-87252883D01*
X165751592Y-87122485D01*
X165862485Y-87011592D01*
X165992883Y-86924463D01*
X166137772Y-86864448D01*
X166291586Y-86833852D01*
X166448414Y-86833852D01*
X166602228Y-86864448D01*
G37*
G36*
X169142228Y-86864448D02*
G01*
X169287117Y-86924463D01*
X169417515Y-87011592D01*
X169528408Y-87122485D01*
X169615537Y-87252883D01*
X169675552Y-87397772D01*
X169706148Y-87551586D01*
X169706148Y-87708414D01*
X169675552Y-87862228D01*
X169615537Y-88007117D01*
X169528408Y-88137515D01*
X169417515Y-88248408D01*
X169287117Y-88335537D01*
X169142228Y-88395552D01*
X168988414Y-88426148D01*
X168831586Y-88426148D01*
X168677772Y-88395552D01*
X168532883Y-88335537D01*
X168402485Y-88248408D01*
X168291592Y-88137515D01*
X168204463Y-88007117D01*
X168144448Y-87862228D01*
X168113852Y-87708414D01*
X168113852Y-87551586D01*
X168144448Y-87397772D01*
X168204463Y-87252883D01*
X168291592Y-87122485D01*
X168402485Y-87011592D01*
X168532883Y-86924463D01*
X168677772Y-86864448D01*
X168831586Y-86833852D01*
X168988414Y-86833852D01*
X169142228Y-86864448D01*
G37*
M02*
