%TF.GenerationSoftware,KiCad,Pcbnew,9.0.2*%
%TF.CreationDate,2026-02-04T16:44:53-05:00*%
%TF.ProjectId,PocketStockV2,506f636b-6574-4537-946f-636b56322e6b,rev?*%
%TF.SameCoordinates,Original*%
%TF.FileFunction,Drillmap*%
%TF.FilePolarity,Positive*%
%FSLAX45Y45*%
G04 Gerber Fmt 4.5, Leading zero omitted, Abs format (unit mm)*
G04 Created by KiCad (PCBNEW 9.0.2) date 2026-02-04 16:44:53*
%MOMM*%
%LPD*%
G01*
G04 APERTURE LIST*
%ADD10C,0.038100*%
%ADD11C,0.200000*%
%ADD12C,0.100000*%
%ADD13C,0.110000*%
G04 APERTURE END LIST*
D10*
X18025000Y-8400000D02*
X14925000Y-8400000D01*
X18025000Y-12400000D02*
X18025000Y-8400000D01*
X14925000Y-12400000D02*
X18025000Y-12400000D01*
X14925000Y-8400000D02*
X14925000Y-12400000D01*
D11*
D12*
X16625000Y-8935000D02*
X16655000Y-8965000D01*
X16655000Y-8935000D02*
X16625000Y-8965000D01*
X17675000Y-9515000D02*
X17705000Y-9545000D01*
X17705000Y-9515000D02*
X17675000Y-9545000D01*
X15788000Y-8763000D02*
G75*
G02*
X15708000Y-8763000I-40000J0D01*
G01*
X15708000Y-8763000D02*
G75*
G02*
X15788000Y-8763000I40000J0D01*
G01*
X15788000Y-9017000D02*
G75*
G02*
X15708000Y-9017000I-40000J0D01*
G01*
X15708000Y-9017000D02*
G75*
G02*
X15788000Y-9017000I40000J0D01*
G01*
X15788000Y-9271000D02*
G75*
G02*
X15708000Y-9271000I-40000J0D01*
G01*
X15708000Y-9271000D02*
G75*
G02*
X15788000Y-9271000I40000J0D01*
G01*
X15788000Y-9525000D02*
G75*
G02*
X15708000Y-9525000I-40000J0D01*
G01*
X15708000Y-9525000D02*
G75*
G02*
X15788000Y-9525000I40000J0D01*
G01*
X15788000Y-9779000D02*
G75*
G02*
X15708000Y-9779000I-40000J0D01*
G01*
X15708000Y-9779000D02*
G75*
G02*
X15788000Y-9779000I40000J0D01*
G01*
X15788000Y-10033000D02*
G75*
G02*
X15708000Y-10033000I-40000J0D01*
G01*
X15708000Y-10033000D02*
G75*
G02*
X15788000Y-10033000I40000J0D01*
G01*
X15788000Y-10287000D02*
G75*
G02*
X15708000Y-10287000I-40000J0D01*
G01*
X15708000Y-10287000D02*
G75*
G02*
X15788000Y-10287000I40000J0D01*
G01*
X15788000Y-10541000D02*
G75*
G02*
X15708000Y-10541000I-40000J0D01*
G01*
X15708000Y-10541000D02*
G75*
G02*
X15788000Y-10541000I40000J0D01*
G01*
X16169000Y-8763000D02*
G75*
G02*
X16089000Y-8763000I-40000J0D01*
G01*
X16089000Y-8763000D02*
G75*
G02*
X16169000Y-8763000I40000J0D01*
G01*
X16423000Y-8763000D02*
G75*
G02*
X16343000Y-8763000I-40000J0D01*
G01*
X16343000Y-8763000D02*
G75*
G02*
X16423000Y-8763000I40000J0D01*
G01*
X16677000Y-8763000D02*
G75*
G02*
X16597000Y-8763000I-40000J0D01*
G01*
X16597000Y-8763000D02*
G75*
G02*
X16677000Y-8763000I40000J0D01*
G01*
X16931000Y-8763000D02*
G75*
G02*
X16851000Y-8763000I-40000J0D01*
G01*
X16851000Y-8763000D02*
G75*
G02*
X16931000Y-8763000I40000J0D01*
G01*
X17312000Y-8763000D02*
G75*
G02*
X17232000Y-8763000I-40000J0D01*
G01*
X17232000Y-8763000D02*
G75*
G02*
X17312000Y-8763000I40000J0D01*
G01*
X17312000Y-9017000D02*
G75*
G02*
X17232000Y-9017000I-40000J0D01*
G01*
X17232000Y-9017000D02*
G75*
G02*
X17312000Y-9017000I40000J0D01*
G01*
X17312000Y-9271000D02*
G75*
G02*
X17232000Y-9271000I-40000J0D01*
G01*
X17232000Y-9271000D02*
G75*
G02*
X17312000Y-9271000I40000J0D01*
G01*
X17312000Y-9525000D02*
G75*
G02*
X17232000Y-9525000I-40000J0D01*
G01*
X17232000Y-9525000D02*
G75*
G02*
X17312000Y-9525000I40000J0D01*
G01*
X17312000Y-9779000D02*
G75*
G02*
X17232000Y-9779000I-40000J0D01*
G01*
X17232000Y-9779000D02*
G75*
G02*
X17312000Y-9779000I40000J0D01*
G01*
X17312000Y-10033000D02*
G75*
G02*
X17232000Y-10033000I-40000J0D01*
G01*
X17232000Y-10033000D02*
G75*
G02*
X17312000Y-10033000I40000J0D01*
G01*
X17312000Y-10287000D02*
G75*
G02*
X17232000Y-10287000I-40000J0D01*
G01*
X17232000Y-10287000D02*
G75*
G02*
X17312000Y-10287000I40000J0D01*
G01*
X17312000Y-10541000D02*
G75*
G02*
X17232000Y-10541000I-40000J0D01*
G01*
X17232000Y-10541000D02*
G75*
G02*
X17312000Y-10541000I40000J0D01*
G01*
D13*
X15141000Y-11550000D02*
X15141000Y-11660000D01*
X15086000Y-11605000D02*
X15196000Y-11605000D01*
X15141000Y-12000000D02*
X15141000Y-12110000D01*
X15086000Y-12055000D02*
X15196000Y-12055000D01*
X15791000Y-11550000D02*
X15791000Y-11660000D01*
X15736000Y-11605000D02*
X15846000Y-11605000D01*
X15791000Y-12000000D02*
X15791000Y-12110000D01*
X15736000Y-12055000D02*
X15846000Y-12055000D01*
X16141000Y-11545000D02*
X16141000Y-11655000D01*
X16086000Y-11600000D02*
X16196000Y-11600000D01*
X16141000Y-11995000D02*
X16141000Y-12105000D01*
X16086000Y-12050000D02*
X16196000Y-12050000D01*
X16791000Y-11545000D02*
X16791000Y-11655000D01*
X16736000Y-11600000D02*
X16846000Y-11600000D01*
X16791000Y-11995000D02*
X16791000Y-12105000D01*
X16736000Y-12050000D02*
X16846000Y-12050000D01*
X17141000Y-11545000D02*
X17141000Y-11655000D01*
X17086000Y-11600000D02*
X17196000Y-11600000D01*
X17141000Y-11995000D02*
X17141000Y-12105000D01*
X17086000Y-12050000D02*
X17196000Y-12050000D01*
X17791000Y-11545000D02*
X17791000Y-11655000D01*
X17736000Y-11600000D02*
X17846000Y-11600000D01*
X17791000Y-11995000D02*
X17791000Y-12105000D01*
X17736000Y-12050000D02*
X17846000Y-12050000D01*
D11*
X15183872Y-12713389D02*
X15183872Y-12513389D01*
X15183872Y-12513389D02*
X15231491Y-12513389D01*
X15231491Y-12513389D02*
X15260062Y-12522913D01*
X15260062Y-12522913D02*
X15279110Y-12541960D01*
X15279110Y-12541960D02*
X15288634Y-12561008D01*
X15288634Y-12561008D02*
X15298157Y-12599103D01*
X15298157Y-12599103D02*
X15298157Y-12627674D01*
X15298157Y-12627674D02*
X15288634Y-12665770D01*
X15288634Y-12665770D02*
X15279110Y-12684817D01*
X15279110Y-12684817D02*
X15260062Y-12703865D01*
X15260062Y-12703865D02*
X15231491Y-12713389D01*
X15231491Y-12713389D02*
X15183872Y-12713389D01*
X15383872Y-12713389D02*
X15383872Y-12580055D01*
X15383872Y-12618151D02*
X15393396Y-12599103D01*
X15393396Y-12599103D02*
X15402919Y-12589579D01*
X15402919Y-12589579D02*
X15421967Y-12580055D01*
X15421967Y-12580055D02*
X15441015Y-12580055D01*
X15507681Y-12713389D02*
X15507681Y-12580055D01*
X15507681Y-12513389D02*
X15498157Y-12522913D01*
X15498157Y-12522913D02*
X15507681Y-12532436D01*
X15507681Y-12532436D02*
X15517205Y-12522913D01*
X15517205Y-12522913D02*
X15507681Y-12513389D01*
X15507681Y-12513389D02*
X15507681Y-12532436D01*
X15631491Y-12713389D02*
X15612443Y-12703865D01*
X15612443Y-12703865D02*
X15602919Y-12684817D01*
X15602919Y-12684817D02*
X15602919Y-12513389D01*
X15736253Y-12713389D02*
X15717205Y-12703865D01*
X15717205Y-12703865D02*
X15707681Y-12684817D01*
X15707681Y-12684817D02*
X15707681Y-12513389D01*
X15964824Y-12713389D02*
X15964824Y-12513389D01*
X15964824Y-12513389D02*
X16031491Y-12656246D01*
X16031491Y-12656246D02*
X16098157Y-12513389D01*
X16098157Y-12513389D02*
X16098157Y-12713389D01*
X16279110Y-12713389D02*
X16279110Y-12608627D01*
X16279110Y-12608627D02*
X16269586Y-12589579D01*
X16269586Y-12589579D02*
X16250538Y-12580055D01*
X16250538Y-12580055D02*
X16212443Y-12580055D01*
X16212443Y-12580055D02*
X16193396Y-12589579D01*
X16279110Y-12703865D02*
X16260062Y-12713389D01*
X16260062Y-12713389D02*
X16212443Y-12713389D01*
X16212443Y-12713389D02*
X16193396Y-12703865D01*
X16193396Y-12703865D02*
X16183872Y-12684817D01*
X16183872Y-12684817D02*
X16183872Y-12665770D01*
X16183872Y-12665770D02*
X16193396Y-12646722D01*
X16193396Y-12646722D02*
X16212443Y-12637198D01*
X16212443Y-12637198D02*
X16260062Y-12637198D01*
X16260062Y-12637198D02*
X16279110Y-12627674D01*
X16374348Y-12580055D02*
X16374348Y-12780055D01*
X16374348Y-12589579D02*
X16393396Y-12580055D01*
X16393396Y-12580055D02*
X16431491Y-12580055D01*
X16431491Y-12580055D02*
X16450538Y-12589579D01*
X16450538Y-12589579D02*
X16460062Y-12599103D01*
X16460062Y-12599103D02*
X16469586Y-12618151D01*
X16469586Y-12618151D02*
X16469586Y-12675293D01*
X16469586Y-12675293D02*
X16460062Y-12694341D01*
X16460062Y-12694341D02*
X16450538Y-12703865D01*
X16450538Y-12703865D02*
X16431491Y-12713389D01*
X16431491Y-12713389D02*
X16393396Y-12713389D01*
X16393396Y-12713389D02*
X16374348Y-12703865D01*
X16555300Y-12694341D02*
X16564824Y-12703865D01*
X16564824Y-12703865D02*
X16555300Y-12713389D01*
X16555300Y-12713389D02*
X16545777Y-12703865D01*
X16545777Y-12703865D02*
X16555300Y-12694341D01*
X16555300Y-12694341D02*
X16555300Y-12713389D01*
X16555300Y-12589579D02*
X16564824Y-12599103D01*
X16564824Y-12599103D02*
X16555300Y-12608627D01*
X16555300Y-12608627D02*
X16545777Y-12599103D01*
X16545777Y-12599103D02*
X16555300Y-12589579D01*
X16555300Y-12589579D02*
X16555300Y-12608627D01*
D12*
X14893095Y-13026905D02*
X14923095Y-13056905D01*
X14923095Y-13026905D02*
X14893095Y-13056905D01*
D11*
X15221967Y-12933389D02*
X15241015Y-12933389D01*
X15241015Y-12933389D02*
X15260062Y-12942913D01*
X15260062Y-12942913D02*
X15269586Y-12952436D01*
X15269586Y-12952436D02*
X15279110Y-12971484D01*
X15279110Y-12971484D02*
X15288634Y-13009579D01*
X15288634Y-13009579D02*
X15288634Y-13057198D01*
X15288634Y-13057198D02*
X15279110Y-13095293D01*
X15279110Y-13095293D02*
X15269586Y-13114341D01*
X15269586Y-13114341D02*
X15260062Y-13123865D01*
X15260062Y-13123865D02*
X15241015Y-13133389D01*
X15241015Y-13133389D02*
X15221967Y-13133389D01*
X15221967Y-13133389D02*
X15202919Y-13123865D01*
X15202919Y-13123865D02*
X15193396Y-13114341D01*
X15193396Y-13114341D02*
X15183872Y-13095293D01*
X15183872Y-13095293D02*
X15174348Y-13057198D01*
X15174348Y-13057198D02*
X15174348Y-13009579D01*
X15174348Y-13009579D02*
X15183872Y-12971484D01*
X15183872Y-12971484D02*
X15193396Y-12952436D01*
X15193396Y-12952436D02*
X15202919Y-12942913D01*
X15202919Y-12942913D02*
X15221967Y-12933389D01*
X15374348Y-13114341D02*
X15383872Y-13123865D01*
X15383872Y-13123865D02*
X15374348Y-13133389D01*
X15374348Y-13133389D02*
X15364824Y-13123865D01*
X15364824Y-13123865D02*
X15374348Y-13114341D01*
X15374348Y-13114341D02*
X15374348Y-13133389D01*
X15450538Y-12933389D02*
X15574348Y-12933389D01*
X15574348Y-12933389D02*
X15507681Y-13009579D01*
X15507681Y-13009579D02*
X15536253Y-13009579D01*
X15536253Y-13009579D02*
X15555300Y-13019103D01*
X15555300Y-13019103D02*
X15564824Y-13028627D01*
X15564824Y-13028627D02*
X15574348Y-13047674D01*
X15574348Y-13047674D02*
X15574348Y-13095293D01*
X15574348Y-13095293D02*
X15564824Y-13114341D01*
X15564824Y-13114341D02*
X15555300Y-13123865D01*
X15555300Y-13123865D02*
X15536253Y-13133389D01*
X15536253Y-13133389D02*
X15479110Y-13133389D01*
X15479110Y-13133389D02*
X15460062Y-13123865D01*
X15460062Y-13123865D02*
X15450538Y-13114341D01*
X15698157Y-12933389D02*
X15717205Y-12933389D01*
X15717205Y-12933389D02*
X15736253Y-12942913D01*
X15736253Y-12942913D02*
X15745777Y-12952436D01*
X15745777Y-12952436D02*
X15755300Y-12971484D01*
X15755300Y-12971484D02*
X15764824Y-13009579D01*
X15764824Y-13009579D02*
X15764824Y-13057198D01*
X15764824Y-13057198D02*
X15755300Y-13095293D01*
X15755300Y-13095293D02*
X15745777Y-13114341D01*
X15745777Y-13114341D02*
X15736253Y-13123865D01*
X15736253Y-13123865D02*
X15717205Y-13133389D01*
X15717205Y-13133389D02*
X15698157Y-13133389D01*
X15698157Y-13133389D02*
X15679110Y-13123865D01*
X15679110Y-13123865D02*
X15669586Y-13114341D01*
X15669586Y-13114341D02*
X15660062Y-13095293D01*
X15660062Y-13095293D02*
X15650538Y-13057198D01*
X15650538Y-13057198D02*
X15650538Y-13009579D01*
X15650538Y-13009579D02*
X15660062Y-12971484D01*
X15660062Y-12971484D02*
X15669586Y-12952436D01*
X15669586Y-12952436D02*
X15679110Y-12942913D01*
X15679110Y-12942913D02*
X15698157Y-12933389D01*
X15888634Y-12933389D02*
X15907681Y-12933389D01*
X15907681Y-12933389D02*
X15926729Y-12942913D01*
X15926729Y-12942913D02*
X15936253Y-12952436D01*
X15936253Y-12952436D02*
X15945777Y-12971484D01*
X15945777Y-12971484D02*
X15955300Y-13009579D01*
X15955300Y-13009579D02*
X15955300Y-13057198D01*
X15955300Y-13057198D02*
X15945777Y-13095293D01*
X15945777Y-13095293D02*
X15936253Y-13114341D01*
X15936253Y-13114341D02*
X15926729Y-13123865D01*
X15926729Y-13123865D02*
X15907681Y-13133389D01*
X15907681Y-13133389D02*
X15888634Y-13133389D01*
X15888634Y-13133389D02*
X15869586Y-13123865D01*
X15869586Y-13123865D02*
X15860062Y-13114341D01*
X15860062Y-13114341D02*
X15850538Y-13095293D01*
X15850538Y-13095293D02*
X15841015Y-13057198D01*
X15841015Y-13057198D02*
X15841015Y-13009579D01*
X15841015Y-13009579D02*
X15850538Y-12971484D01*
X15850538Y-12971484D02*
X15860062Y-12952436D01*
X15860062Y-12952436D02*
X15869586Y-12942913D01*
X15869586Y-12942913D02*
X15888634Y-12933389D01*
X16041015Y-13133389D02*
X16041015Y-13000055D01*
X16041015Y-13019103D02*
X16050538Y-13009579D01*
X16050538Y-13009579D02*
X16069586Y-13000055D01*
X16069586Y-13000055D02*
X16098158Y-13000055D01*
X16098158Y-13000055D02*
X16117205Y-13009579D01*
X16117205Y-13009579D02*
X16126729Y-13028627D01*
X16126729Y-13028627D02*
X16126729Y-13133389D01*
X16126729Y-13028627D02*
X16136253Y-13009579D01*
X16136253Y-13009579D02*
X16155300Y-13000055D01*
X16155300Y-13000055D02*
X16183872Y-13000055D01*
X16183872Y-13000055D02*
X16202919Y-13009579D01*
X16202919Y-13009579D02*
X16212443Y-13028627D01*
X16212443Y-13028627D02*
X16212443Y-13133389D01*
X16307681Y-13133389D02*
X16307681Y-13000055D01*
X16307681Y-13019103D02*
X16317205Y-13009579D01*
X16317205Y-13009579D02*
X16336253Y-13000055D01*
X16336253Y-13000055D02*
X16364824Y-13000055D01*
X16364824Y-13000055D02*
X16383872Y-13009579D01*
X16383872Y-13009579D02*
X16393396Y-13028627D01*
X16393396Y-13028627D02*
X16393396Y-13133389D01*
X16393396Y-13028627D02*
X16402919Y-13009579D01*
X16402919Y-13009579D02*
X16421967Y-13000055D01*
X16421967Y-13000055D02*
X16450538Y-13000055D01*
X16450538Y-13000055D02*
X16469586Y-13009579D01*
X16469586Y-13009579D02*
X16479110Y-13028627D01*
X16479110Y-13028627D02*
X16479110Y-13133389D01*
X16869586Y-12923865D02*
X16698158Y-13181008D01*
X17126729Y-12933389D02*
X17145777Y-12933389D01*
X17145777Y-12933389D02*
X17164824Y-12942913D01*
X17164824Y-12942913D02*
X17174348Y-12952436D01*
X17174348Y-12952436D02*
X17183872Y-12971484D01*
X17183872Y-12971484D02*
X17193396Y-13009579D01*
X17193396Y-13009579D02*
X17193396Y-13057198D01*
X17193396Y-13057198D02*
X17183872Y-13095293D01*
X17183872Y-13095293D02*
X17174348Y-13114341D01*
X17174348Y-13114341D02*
X17164824Y-13123865D01*
X17164824Y-13123865D02*
X17145777Y-13133389D01*
X17145777Y-13133389D02*
X17126729Y-13133389D01*
X17126729Y-13133389D02*
X17107682Y-13123865D01*
X17107682Y-13123865D02*
X17098158Y-13114341D01*
X17098158Y-13114341D02*
X17088634Y-13095293D01*
X17088634Y-13095293D02*
X17079110Y-13057198D01*
X17079110Y-13057198D02*
X17079110Y-13009579D01*
X17079110Y-13009579D02*
X17088634Y-12971484D01*
X17088634Y-12971484D02*
X17098158Y-12952436D01*
X17098158Y-12952436D02*
X17107682Y-12942913D01*
X17107682Y-12942913D02*
X17126729Y-12933389D01*
X17279110Y-13114341D02*
X17288634Y-13123865D01*
X17288634Y-13123865D02*
X17279110Y-13133389D01*
X17279110Y-13133389D02*
X17269586Y-13123865D01*
X17269586Y-13123865D02*
X17279110Y-13114341D01*
X17279110Y-13114341D02*
X17279110Y-13133389D01*
X17412443Y-12933389D02*
X17431491Y-12933389D01*
X17431491Y-12933389D02*
X17450539Y-12942913D01*
X17450539Y-12942913D02*
X17460063Y-12952436D01*
X17460063Y-12952436D02*
X17469586Y-12971484D01*
X17469586Y-12971484D02*
X17479110Y-13009579D01*
X17479110Y-13009579D02*
X17479110Y-13057198D01*
X17479110Y-13057198D02*
X17469586Y-13095293D01*
X17469586Y-13095293D02*
X17460063Y-13114341D01*
X17460063Y-13114341D02*
X17450539Y-13123865D01*
X17450539Y-13123865D02*
X17431491Y-13133389D01*
X17431491Y-13133389D02*
X17412443Y-13133389D01*
X17412443Y-13133389D02*
X17393396Y-13123865D01*
X17393396Y-13123865D02*
X17383872Y-13114341D01*
X17383872Y-13114341D02*
X17374348Y-13095293D01*
X17374348Y-13095293D02*
X17364824Y-13057198D01*
X17364824Y-13057198D02*
X17364824Y-13009579D01*
X17364824Y-13009579D02*
X17374348Y-12971484D01*
X17374348Y-12971484D02*
X17383872Y-12952436D01*
X17383872Y-12952436D02*
X17393396Y-12942913D01*
X17393396Y-12942913D02*
X17412443Y-12933389D01*
X17669586Y-13133389D02*
X17555301Y-13133389D01*
X17612443Y-13133389D02*
X17612443Y-12933389D01*
X17612443Y-12933389D02*
X17593396Y-12961960D01*
X17593396Y-12961960D02*
X17574348Y-12981008D01*
X17574348Y-12981008D02*
X17555301Y-12990532D01*
X17860063Y-13133389D02*
X17745777Y-13133389D01*
X17802920Y-13133389D02*
X17802920Y-12933389D01*
X17802920Y-12933389D02*
X17783872Y-12961960D01*
X17783872Y-12961960D02*
X17764824Y-12981008D01*
X17764824Y-12981008D02*
X17745777Y-12990532D01*
X17974348Y-13019103D02*
X17955301Y-13009579D01*
X17955301Y-13009579D02*
X17945777Y-13000055D01*
X17945777Y-13000055D02*
X17936253Y-12981008D01*
X17936253Y-12981008D02*
X17936253Y-12971484D01*
X17936253Y-12971484D02*
X17945777Y-12952436D01*
X17945777Y-12952436D02*
X17955301Y-12942913D01*
X17955301Y-12942913D02*
X17974348Y-12933389D01*
X17974348Y-12933389D02*
X18012444Y-12933389D01*
X18012444Y-12933389D02*
X18031491Y-12942913D01*
X18031491Y-12942913D02*
X18041015Y-12952436D01*
X18041015Y-12952436D02*
X18050539Y-12971484D01*
X18050539Y-12971484D02*
X18050539Y-12981008D01*
X18050539Y-12981008D02*
X18041015Y-13000055D01*
X18041015Y-13000055D02*
X18031491Y-13009579D01*
X18031491Y-13009579D02*
X18012444Y-13019103D01*
X18012444Y-13019103D02*
X17974348Y-13019103D01*
X17974348Y-13019103D02*
X17955301Y-13028627D01*
X17955301Y-13028627D02*
X17945777Y-13038151D01*
X17945777Y-13038151D02*
X17936253Y-13057198D01*
X17936253Y-13057198D02*
X17936253Y-13095293D01*
X17936253Y-13095293D02*
X17945777Y-13114341D01*
X17945777Y-13114341D02*
X17955301Y-13123865D01*
X17955301Y-13123865D02*
X17974348Y-13133389D01*
X17974348Y-13133389D02*
X18012444Y-13133389D01*
X18012444Y-13133389D02*
X18031491Y-13123865D01*
X18031491Y-13123865D02*
X18041015Y-13114341D01*
X18041015Y-13114341D02*
X18050539Y-13095293D01*
X18050539Y-13095293D02*
X18050539Y-13057198D01*
X18050539Y-13057198D02*
X18041015Y-13038151D01*
X18041015Y-13038151D02*
X18031491Y-13028627D01*
X18031491Y-13028627D02*
X18012444Y-13019103D01*
X18126729Y-12933389D02*
X18126729Y-12971484D01*
X18202920Y-12933389D02*
X18202920Y-12971484D01*
X18498158Y-13209579D02*
X18488634Y-13200055D01*
X18488634Y-13200055D02*
X18469586Y-13171484D01*
X18469586Y-13171484D02*
X18460063Y-13152436D01*
X18460063Y-13152436D02*
X18450539Y-13123865D01*
X18450539Y-13123865D02*
X18441015Y-13076246D01*
X18441015Y-13076246D02*
X18441015Y-13038151D01*
X18441015Y-13038151D02*
X18450539Y-12990532D01*
X18450539Y-12990532D02*
X18460063Y-12961960D01*
X18460063Y-12961960D02*
X18469586Y-12942913D01*
X18469586Y-12942913D02*
X18488634Y-12914341D01*
X18488634Y-12914341D02*
X18498158Y-12904817D01*
X18564825Y-12952436D02*
X18574348Y-12942913D01*
X18574348Y-12942913D02*
X18593396Y-12933389D01*
X18593396Y-12933389D02*
X18641015Y-12933389D01*
X18641015Y-12933389D02*
X18660063Y-12942913D01*
X18660063Y-12942913D02*
X18669586Y-12952436D01*
X18669586Y-12952436D02*
X18679110Y-12971484D01*
X18679110Y-12971484D02*
X18679110Y-12990532D01*
X18679110Y-12990532D02*
X18669586Y-13019103D01*
X18669586Y-13019103D02*
X18555301Y-13133389D01*
X18555301Y-13133389D02*
X18679110Y-13133389D01*
X18917206Y-13133389D02*
X18917206Y-12933389D01*
X19002920Y-13133389D02*
X19002920Y-13028627D01*
X19002920Y-13028627D02*
X18993396Y-13009579D01*
X18993396Y-13009579D02*
X18974348Y-13000055D01*
X18974348Y-13000055D02*
X18945777Y-13000055D01*
X18945777Y-13000055D02*
X18926729Y-13009579D01*
X18926729Y-13009579D02*
X18917206Y-13019103D01*
X19126729Y-13133389D02*
X19107682Y-13123865D01*
X19107682Y-13123865D02*
X19098158Y-13114341D01*
X19098158Y-13114341D02*
X19088634Y-13095293D01*
X19088634Y-13095293D02*
X19088634Y-13038151D01*
X19088634Y-13038151D02*
X19098158Y-13019103D01*
X19098158Y-13019103D02*
X19107682Y-13009579D01*
X19107682Y-13009579D02*
X19126729Y-13000055D01*
X19126729Y-13000055D02*
X19155301Y-13000055D01*
X19155301Y-13000055D02*
X19174348Y-13009579D01*
X19174348Y-13009579D02*
X19183872Y-13019103D01*
X19183872Y-13019103D02*
X19193396Y-13038151D01*
X19193396Y-13038151D02*
X19193396Y-13095293D01*
X19193396Y-13095293D02*
X19183872Y-13114341D01*
X19183872Y-13114341D02*
X19174348Y-13123865D01*
X19174348Y-13123865D02*
X19155301Y-13133389D01*
X19155301Y-13133389D02*
X19126729Y-13133389D01*
X19307682Y-13133389D02*
X19288634Y-13123865D01*
X19288634Y-13123865D02*
X19279110Y-13104817D01*
X19279110Y-13104817D02*
X19279110Y-12933389D01*
X19460063Y-13123865D02*
X19441015Y-13133389D01*
X19441015Y-13133389D02*
X19402920Y-13133389D01*
X19402920Y-13133389D02*
X19383872Y-13123865D01*
X19383872Y-13123865D02*
X19374348Y-13104817D01*
X19374348Y-13104817D02*
X19374348Y-13028627D01*
X19374348Y-13028627D02*
X19383872Y-13009579D01*
X19383872Y-13009579D02*
X19402920Y-13000055D01*
X19402920Y-13000055D02*
X19441015Y-13000055D01*
X19441015Y-13000055D02*
X19460063Y-13009579D01*
X19460063Y-13009579D02*
X19469587Y-13028627D01*
X19469587Y-13028627D02*
X19469587Y-13047674D01*
X19469587Y-13047674D02*
X19374348Y-13066722D01*
X19545777Y-13123865D02*
X19564825Y-13133389D01*
X19564825Y-13133389D02*
X19602920Y-13133389D01*
X19602920Y-13133389D02*
X19621968Y-13123865D01*
X19621968Y-13123865D02*
X19631491Y-13104817D01*
X19631491Y-13104817D02*
X19631491Y-13095293D01*
X19631491Y-13095293D02*
X19621968Y-13076246D01*
X19621968Y-13076246D02*
X19602920Y-13066722D01*
X19602920Y-13066722D02*
X19574348Y-13066722D01*
X19574348Y-13066722D02*
X19555301Y-13057198D01*
X19555301Y-13057198D02*
X19545777Y-13038151D01*
X19545777Y-13038151D02*
X19545777Y-13028627D01*
X19545777Y-13028627D02*
X19555301Y-13009579D01*
X19555301Y-13009579D02*
X19574348Y-13000055D01*
X19574348Y-13000055D02*
X19602920Y-13000055D01*
X19602920Y-13000055D02*
X19621968Y-13009579D01*
X19698158Y-13209579D02*
X19707682Y-13200055D01*
X19707682Y-13200055D02*
X19726729Y-13171484D01*
X19726729Y-13171484D02*
X19736253Y-13152436D01*
X19736253Y-13152436D02*
X19745777Y-13123865D01*
X19745777Y-13123865D02*
X19755301Y-13076246D01*
X19755301Y-13076246D02*
X19755301Y-13038151D01*
X19755301Y-13038151D02*
X19745777Y-12990532D01*
X19745777Y-12990532D02*
X19736253Y-12961960D01*
X19736253Y-12961960D02*
X19726729Y-12942913D01*
X19726729Y-12942913D02*
X19707682Y-12914341D01*
X19707682Y-12914341D02*
X19698158Y-12904817D01*
D12*
X14923095Y-13305905D02*
G75*
G02*
X14843095Y-13305905I-40000J0D01*
G01*
X14843095Y-13305905D02*
G75*
G02*
X14923095Y-13305905I40000J0D01*
G01*
D11*
X15221967Y-13197389D02*
X15241015Y-13197389D01*
X15241015Y-13197389D02*
X15260062Y-13206913D01*
X15260062Y-13206913D02*
X15269586Y-13216436D01*
X15269586Y-13216436D02*
X15279110Y-13235484D01*
X15279110Y-13235484D02*
X15288634Y-13273579D01*
X15288634Y-13273579D02*
X15288634Y-13321198D01*
X15288634Y-13321198D02*
X15279110Y-13359293D01*
X15279110Y-13359293D02*
X15269586Y-13378341D01*
X15269586Y-13378341D02*
X15260062Y-13387865D01*
X15260062Y-13387865D02*
X15241015Y-13397389D01*
X15241015Y-13397389D02*
X15221967Y-13397389D01*
X15221967Y-13397389D02*
X15202919Y-13387865D01*
X15202919Y-13387865D02*
X15193396Y-13378341D01*
X15193396Y-13378341D02*
X15183872Y-13359293D01*
X15183872Y-13359293D02*
X15174348Y-13321198D01*
X15174348Y-13321198D02*
X15174348Y-13273579D01*
X15174348Y-13273579D02*
X15183872Y-13235484D01*
X15183872Y-13235484D02*
X15193396Y-13216436D01*
X15193396Y-13216436D02*
X15202919Y-13206913D01*
X15202919Y-13206913D02*
X15221967Y-13197389D01*
X15374348Y-13378341D02*
X15383872Y-13387865D01*
X15383872Y-13387865D02*
X15374348Y-13397389D01*
X15374348Y-13397389D02*
X15364824Y-13387865D01*
X15364824Y-13387865D02*
X15374348Y-13378341D01*
X15374348Y-13378341D02*
X15374348Y-13397389D01*
X15498157Y-13283103D02*
X15479110Y-13273579D01*
X15479110Y-13273579D02*
X15469586Y-13264055D01*
X15469586Y-13264055D02*
X15460062Y-13245008D01*
X15460062Y-13245008D02*
X15460062Y-13235484D01*
X15460062Y-13235484D02*
X15469586Y-13216436D01*
X15469586Y-13216436D02*
X15479110Y-13206913D01*
X15479110Y-13206913D02*
X15498157Y-13197389D01*
X15498157Y-13197389D02*
X15536253Y-13197389D01*
X15536253Y-13197389D02*
X15555300Y-13206913D01*
X15555300Y-13206913D02*
X15564824Y-13216436D01*
X15564824Y-13216436D02*
X15574348Y-13235484D01*
X15574348Y-13235484D02*
X15574348Y-13245008D01*
X15574348Y-13245008D02*
X15564824Y-13264055D01*
X15564824Y-13264055D02*
X15555300Y-13273579D01*
X15555300Y-13273579D02*
X15536253Y-13283103D01*
X15536253Y-13283103D02*
X15498157Y-13283103D01*
X15498157Y-13283103D02*
X15479110Y-13292627D01*
X15479110Y-13292627D02*
X15469586Y-13302151D01*
X15469586Y-13302151D02*
X15460062Y-13321198D01*
X15460062Y-13321198D02*
X15460062Y-13359293D01*
X15460062Y-13359293D02*
X15469586Y-13378341D01*
X15469586Y-13378341D02*
X15479110Y-13387865D01*
X15479110Y-13387865D02*
X15498157Y-13397389D01*
X15498157Y-13397389D02*
X15536253Y-13397389D01*
X15536253Y-13397389D02*
X15555300Y-13387865D01*
X15555300Y-13387865D02*
X15564824Y-13378341D01*
X15564824Y-13378341D02*
X15574348Y-13359293D01*
X15574348Y-13359293D02*
X15574348Y-13321198D01*
X15574348Y-13321198D02*
X15564824Y-13302151D01*
X15564824Y-13302151D02*
X15555300Y-13292627D01*
X15555300Y-13292627D02*
X15536253Y-13283103D01*
X15698157Y-13197389D02*
X15717205Y-13197389D01*
X15717205Y-13197389D02*
X15736253Y-13206913D01*
X15736253Y-13206913D02*
X15745777Y-13216436D01*
X15745777Y-13216436D02*
X15755300Y-13235484D01*
X15755300Y-13235484D02*
X15764824Y-13273579D01*
X15764824Y-13273579D02*
X15764824Y-13321198D01*
X15764824Y-13321198D02*
X15755300Y-13359293D01*
X15755300Y-13359293D02*
X15745777Y-13378341D01*
X15745777Y-13378341D02*
X15736253Y-13387865D01*
X15736253Y-13387865D02*
X15717205Y-13397389D01*
X15717205Y-13397389D02*
X15698157Y-13397389D01*
X15698157Y-13397389D02*
X15679110Y-13387865D01*
X15679110Y-13387865D02*
X15669586Y-13378341D01*
X15669586Y-13378341D02*
X15660062Y-13359293D01*
X15660062Y-13359293D02*
X15650538Y-13321198D01*
X15650538Y-13321198D02*
X15650538Y-13273579D01*
X15650538Y-13273579D02*
X15660062Y-13235484D01*
X15660062Y-13235484D02*
X15669586Y-13216436D01*
X15669586Y-13216436D02*
X15679110Y-13206913D01*
X15679110Y-13206913D02*
X15698157Y-13197389D01*
X15888634Y-13197389D02*
X15907681Y-13197389D01*
X15907681Y-13197389D02*
X15926729Y-13206913D01*
X15926729Y-13206913D02*
X15936253Y-13216436D01*
X15936253Y-13216436D02*
X15945777Y-13235484D01*
X15945777Y-13235484D02*
X15955300Y-13273579D01*
X15955300Y-13273579D02*
X15955300Y-13321198D01*
X15955300Y-13321198D02*
X15945777Y-13359293D01*
X15945777Y-13359293D02*
X15936253Y-13378341D01*
X15936253Y-13378341D02*
X15926729Y-13387865D01*
X15926729Y-13387865D02*
X15907681Y-13397389D01*
X15907681Y-13397389D02*
X15888634Y-13397389D01*
X15888634Y-13397389D02*
X15869586Y-13387865D01*
X15869586Y-13387865D02*
X15860062Y-13378341D01*
X15860062Y-13378341D02*
X15850538Y-13359293D01*
X15850538Y-13359293D02*
X15841015Y-13321198D01*
X15841015Y-13321198D02*
X15841015Y-13273579D01*
X15841015Y-13273579D02*
X15850538Y-13235484D01*
X15850538Y-13235484D02*
X15860062Y-13216436D01*
X15860062Y-13216436D02*
X15869586Y-13206913D01*
X15869586Y-13206913D02*
X15888634Y-13197389D01*
X16041015Y-13397389D02*
X16041015Y-13264055D01*
X16041015Y-13283103D02*
X16050538Y-13273579D01*
X16050538Y-13273579D02*
X16069586Y-13264055D01*
X16069586Y-13264055D02*
X16098158Y-13264055D01*
X16098158Y-13264055D02*
X16117205Y-13273579D01*
X16117205Y-13273579D02*
X16126729Y-13292627D01*
X16126729Y-13292627D02*
X16126729Y-13397389D01*
X16126729Y-13292627D02*
X16136253Y-13273579D01*
X16136253Y-13273579D02*
X16155300Y-13264055D01*
X16155300Y-13264055D02*
X16183872Y-13264055D01*
X16183872Y-13264055D02*
X16202919Y-13273579D01*
X16202919Y-13273579D02*
X16212443Y-13292627D01*
X16212443Y-13292627D02*
X16212443Y-13397389D01*
X16307681Y-13397389D02*
X16307681Y-13264055D01*
X16307681Y-13283103D02*
X16317205Y-13273579D01*
X16317205Y-13273579D02*
X16336253Y-13264055D01*
X16336253Y-13264055D02*
X16364824Y-13264055D01*
X16364824Y-13264055D02*
X16383872Y-13273579D01*
X16383872Y-13273579D02*
X16393396Y-13292627D01*
X16393396Y-13292627D02*
X16393396Y-13397389D01*
X16393396Y-13292627D02*
X16402919Y-13273579D01*
X16402919Y-13273579D02*
X16421967Y-13264055D01*
X16421967Y-13264055D02*
X16450538Y-13264055D01*
X16450538Y-13264055D02*
X16469586Y-13273579D01*
X16469586Y-13273579D02*
X16479110Y-13292627D01*
X16479110Y-13292627D02*
X16479110Y-13397389D01*
X16869586Y-13187865D02*
X16698158Y-13445008D01*
X17126729Y-13197389D02*
X17145777Y-13197389D01*
X17145777Y-13197389D02*
X17164824Y-13206913D01*
X17164824Y-13206913D02*
X17174348Y-13216436D01*
X17174348Y-13216436D02*
X17183872Y-13235484D01*
X17183872Y-13235484D02*
X17193396Y-13273579D01*
X17193396Y-13273579D02*
X17193396Y-13321198D01*
X17193396Y-13321198D02*
X17183872Y-13359293D01*
X17183872Y-13359293D02*
X17174348Y-13378341D01*
X17174348Y-13378341D02*
X17164824Y-13387865D01*
X17164824Y-13387865D02*
X17145777Y-13397389D01*
X17145777Y-13397389D02*
X17126729Y-13397389D01*
X17126729Y-13397389D02*
X17107682Y-13387865D01*
X17107682Y-13387865D02*
X17098158Y-13378341D01*
X17098158Y-13378341D02*
X17088634Y-13359293D01*
X17088634Y-13359293D02*
X17079110Y-13321198D01*
X17079110Y-13321198D02*
X17079110Y-13273579D01*
X17079110Y-13273579D02*
X17088634Y-13235484D01*
X17088634Y-13235484D02*
X17098158Y-13216436D01*
X17098158Y-13216436D02*
X17107682Y-13206913D01*
X17107682Y-13206913D02*
X17126729Y-13197389D01*
X17279110Y-13378341D02*
X17288634Y-13387865D01*
X17288634Y-13387865D02*
X17279110Y-13397389D01*
X17279110Y-13397389D02*
X17269586Y-13387865D01*
X17269586Y-13387865D02*
X17279110Y-13378341D01*
X17279110Y-13378341D02*
X17279110Y-13397389D01*
X17412443Y-13197389D02*
X17431491Y-13197389D01*
X17431491Y-13197389D02*
X17450539Y-13206913D01*
X17450539Y-13206913D02*
X17460063Y-13216436D01*
X17460063Y-13216436D02*
X17469586Y-13235484D01*
X17469586Y-13235484D02*
X17479110Y-13273579D01*
X17479110Y-13273579D02*
X17479110Y-13321198D01*
X17479110Y-13321198D02*
X17469586Y-13359293D01*
X17469586Y-13359293D02*
X17460063Y-13378341D01*
X17460063Y-13378341D02*
X17450539Y-13387865D01*
X17450539Y-13387865D02*
X17431491Y-13397389D01*
X17431491Y-13397389D02*
X17412443Y-13397389D01*
X17412443Y-13397389D02*
X17393396Y-13387865D01*
X17393396Y-13387865D02*
X17383872Y-13378341D01*
X17383872Y-13378341D02*
X17374348Y-13359293D01*
X17374348Y-13359293D02*
X17364824Y-13321198D01*
X17364824Y-13321198D02*
X17364824Y-13273579D01*
X17364824Y-13273579D02*
X17374348Y-13235484D01*
X17374348Y-13235484D02*
X17383872Y-13216436D01*
X17383872Y-13216436D02*
X17393396Y-13206913D01*
X17393396Y-13206913D02*
X17412443Y-13197389D01*
X17545777Y-13197389D02*
X17669586Y-13197389D01*
X17669586Y-13197389D02*
X17602920Y-13273579D01*
X17602920Y-13273579D02*
X17631491Y-13273579D01*
X17631491Y-13273579D02*
X17650539Y-13283103D01*
X17650539Y-13283103D02*
X17660063Y-13292627D01*
X17660063Y-13292627D02*
X17669586Y-13311674D01*
X17669586Y-13311674D02*
X17669586Y-13359293D01*
X17669586Y-13359293D02*
X17660063Y-13378341D01*
X17660063Y-13378341D02*
X17650539Y-13387865D01*
X17650539Y-13387865D02*
X17631491Y-13397389D01*
X17631491Y-13397389D02*
X17574348Y-13397389D01*
X17574348Y-13397389D02*
X17555301Y-13387865D01*
X17555301Y-13387865D02*
X17545777Y-13378341D01*
X17860063Y-13397389D02*
X17745777Y-13397389D01*
X17802920Y-13397389D02*
X17802920Y-13197389D01*
X17802920Y-13197389D02*
X17783872Y-13225960D01*
X17783872Y-13225960D02*
X17764824Y-13245008D01*
X17764824Y-13245008D02*
X17745777Y-13254532D01*
X18041015Y-13197389D02*
X17945777Y-13197389D01*
X17945777Y-13197389D02*
X17936253Y-13292627D01*
X17936253Y-13292627D02*
X17945777Y-13283103D01*
X17945777Y-13283103D02*
X17964824Y-13273579D01*
X17964824Y-13273579D02*
X18012444Y-13273579D01*
X18012444Y-13273579D02*
X18031491Y-13283103D01*
X18031491Y-13283103D02*
X18041015Y-13292627D01*
X18041015Y-13292627D02*
X18050539Y-13311674D01*
X18050539Y-13311674D02*
X18050539Y-13359293D01*
X18050539Y-13359293D02*
X18041015Y-13378341D01*
X18041015Y-13378341D02*
X18031491Y-13387865D01*
X18031491Y-13387865D02*
X18012444Y-13397389D01*
X18012444Y-13397389D02*
X17964824Y-13397389D01*
X17964824Y-13397389D02*
X17945777Y-13387865D01*
X17945777Y-13387865D02*
X17936253Y-13378341D01*
X18126729Y-13197389D02*
X18126729Y-13235484D01*
X18202920Y-13197389D02*
X18202920Y-13235484D01*
X18498158Y-13473579D02*
X18488634Y-13464055D01*
X18488634Y-13464055D02*
X18469586Y-13435484D01*
X18469586Y-13435484D02*
X18460063Y-13416436D01*
X18460063Y-13416436D02*
X18450539Y-13387865D01*
X18450539Y-13387865D02*
X18441015Y-13340246D01*
X18441015Y-13340246D02*
X18441015Y-13302151D01*
X18441015Y-13302151D02*
X18450539Y-13254532D01*
X18450539Y-13254532D02*
X18460063Y-13225960D01*
X18460063Y-13225960D02*
X18469586Y-13206913D01*
X18469586Y-13206913D02*
X18488634Y-13178341D01*
X18488634Y-13178341D02*
X18498158Y-13168817D01*
X18564825Y-13216436D02*
X18574348Y-13206913D01*
X18574348Y-13206913D02*
X18593396Y-13197389D01*
X18593396Y-13197389D02*
X18641015Y-13197389D01*
X18641015Y-13197389D02*
X18660063Y-13206913D01*
X18660063Y-13206913D02*
X18669586Y-13216436D01*
X18669586Y-13216436D02*
X18679110Y-13235484D01*
X18679110Y-13235484D02*
X18679110Y-13254532D01*
X18679110Y-13254532D02*
X18669586Y-13283103D01*
X18669586Y-13283103D02*
X18555301Y-13397389D01*
X18555301Y-13397389D02*
X18679110Y-13397389D01*
X18802920Y-13197389D02*
X18821967Y-13197389D01*
X18821967Y-13197389D02*
X18841015Y-13206913D01*
X18841015Y-13206913D02*
X18850539Y-13216436D01*
X18850539Y-13216436D02*
X18860063Y-13235484D01*
X18860063Y-13235484D02*
X18869586Y-13273579D01*
X18869586Y-13273579D02*
X18869586Y-13321198D01*
X18869586Y-13321198D02*
X18860063Y-13359293D01*
X18860063Y-13359293D02*
X18850539Y-13378341D01*
X18850539Y-13378341D02*
X18841015Y-13387865D01*
X18841015Y-13387865D02*
X18821967Y-13397389D01*
X18821967Y-13397389D02*
X18802920Y-13397389D01*
X18802920Y-13397389D02*
X18783872Y-13387865D01*
X18783872Y-13387865D02*
X18774348Y-13378341D01*
X18774348Y-13378341D02*
X18764825Y-13359293D01*
X18764825Y-13359293D02*
X18755301Y-13321198D01*
X18755301Y-13321198D02*
X18755301Y-13273579D01*
X18755301Y-13273579D02*
X18764825Y-13235484D01*
X18764825Y-13235484D02*
X18774348Y-13216436D01*
X18774348Y-13216436D02*
X18783872Y-13206913D01*
X18783872Y-13206913D02*
X18802920Y-13197389D01*
X19107682Y-13397389D02*
X19107682Y-13197389D01*
X19193396Y-13397389D02*
X19193396Y-13292627D01*
X19193396Y-13292627D02*
X19183872Y-13273579D01*
X19183872Y-13273579D02*
X19164825Y-13264055D01*
X19164825Y-13264055D02*
X19136253Y-13264055D01*
X19136253Y-13264055D02*
X19117206Y-13273579D01*
X19117206Y-13273579D02*
X19107682Y-13283103D01*
X19317206Y-13397389D02*
X19298158Y-13387865D01*
X19298158Y-13387865D02*
X19288634Y-13378341D01*
X19288634Y-13378341D02*
X19279110Y-13359293D01*
X19279110Y-13359293D02*
X19279110Y-13302151D01*
X19279110Y-13302151D02*
X19288634Y-13283103D01*
X19288634Y-13283103D02*
X19298158Y-13273579D01*
X19298158Y-13273579D02*
X19317206Y-13264055D01*
X19317206Y-13264055D02*
X19345777Y-13264055D01*
X19345777Y-13264055D02*
X19364825Y-13273579D01*
X19364825Y-13273579D02*
X19374348Y-13283103D01*
X19374348Y-13283103D02*
X19383872Y-13302151D01*
X19383872Y-13302151D02*
X19383872Y-13359293D01*
X19383872Y-13359293D02*
X19374348Y-13378341D01*
X19374348Y-13378341D02*
X19364825Y-13387865D01*
X19364825Y-13387865D02*
X19345777Y-13397389D01*
X19345777Y-13397389D02*
X19317206Y-13397389D01*
X19498158Y-13397389D02*
X19479110Y-13387865D01*
X19479110Y-13387865D02*
X19469587Y-13368817D01*
X19469587Y-13368817D02*
X19469587Y-13197389D01*
X19650539Y-13387865D02*
X19631491Y-13397389D01*
X19631491Y-13397389D02*
X19593396Y-13397389D01*
X19593396Y-13397389D02*
X19574348Y-13387865D01*
X19574348Y-13387865D02*
X19564825Y-13368817D01*
X19564825Y-13368817D02*
X19564825Y-13292627D01*
X19564825Y-13292627D02*
X19574348Y-13273579D01*
X19574348Y-13273579D02*
X19593396Y-13264055D01*
X19593396Y-13264055D02*
X19631491Y-13264055D01*
X19631491Y-13264055D02*
X19650539Y-13273579D01*
X19650539Y-13273579D02*
X19660063Y-13292627D01*
X19660063Y-13292627D02*
X19660063Y-13311674D01*
X19660063Y-13311674D02*
X19564825Y-13330722D01*
X19736253Y-13387865D02*
X19755301Y-13397389D01*
X19755301Y-13397389D02*
X19793396Y-13397389D01*
X19793396Y-13397389D02*
X19812444Y-13387865D01*
X19812444Y-13387865D02*
X19821968Y-13368817D01*
X19821968Y-13368817D02*
X19821968Y-13359293D01*
X19821968Y-13359293D02*
X19812444Y-13340246D01*
X19812444Y-13340246D02*
X19793396Y-13330722D01*
X19793396Y-13330722D02*
X19764825Y-13330722D01*
X19764825Y-13330722D02*
X19745777Y-13321198D01*
X19745777Y-13321198D02*
X19736253Y-13302151D01*
X19736253Y-13302151D02*
X19736253Y-13292627D01*
X19736253Y-13292627D02*
X19745777Y-13273579D01*
X19745777Y-13273579D02*
X19764825Y-13264055D01*
X19764825Y-13264055D02*
X19793396Y-13264055D01*
X19793396Y-13264055D02*
X19812444Y-13273579D01*
X19888634Y-13473579D02*
X19898158Y-13464055D01*
X19898158Y-13464055D02*
X19917206Y-13435484D01*
X19917206Y-13435484D02*
X19926729Y-13416436D01*
X19926729Y-13416436D02*
X19936253Y-13387865D01*
X19936253Y-13387865D02*
X19945777Y-13340246D01*
X19945777Y-13340246D02*
X19945777Y-13302151D01*
X19945777Y-13302151D02*
X19936253Y-13254532D01*
X19936253Y-13254532D02*
X19926729Y-13225960D01*
X19926729Y-13225960D02*
X19917206Y-13206913D01*
X19917206Y-13206913D02*
X19898158Y-13178341D01*
X19898158Y-13178341D02*
X19888634Y-13168817D01*
D13*
X14868095Y-13514905D02*
X14868095Y-13624905D01*
X14813095Y-13569905D02*
X14923095Y-13569905D01*
D11*
X15288634Y-13661389D02*
X15174348Y-13661389D01*
X15231491Y-13661389D02*
X15231491Y-13461389D01*
X15231491Y-13461389D02*
X15212443Y-13489960D01*
X15212443Y-13489960D02*
X15193396Y-13509008D01*
X15193396Y-13509008D02*
X15174348Y-13518532D01*
X15374348Y-13642341D02*
X15383872Y-13651865D01*
X15383872Y-13651865D02*
X15374348Y-13661389D01*
X15374348Y-13661389D02*
X15364824Y-13651865D01*
X15364824Y-13651865D02*
X15374348Y-13642341D01*
X15374348Y-13642341D02*
X15374348Y-13661389D01*
X15574348Y-13661389D02*
X15460062Y-13661389D01*
X15517205Y-13661389D02*
X15517205Y-13461389D01*
X15517205Y-13461389D02*
X15498157Y-13489960D01*
X15498157Y-13489960D02*
X15479110Y-13509008D01*
X15479110Y-13509008D02*
X15460062Y-13518532D01*
X15698157Y-13461389D02*
X15717205Y-13461389D01*
X15717205Y-13461389D02*
X15736253Y-13470913D01*
X15736253Y-13470913D02*
X15745777Y-13480436D01*
X15745777Y-13480436D02*
X15755300Y-13499484D01*
X15755300Y-13499484D02*
X15764824Y-13537579D01*
X15764824Y-13537579D02*
X15764824Y-13585198D01*
X15764824Y-13585198D02*
X15755300Y-13623293D01*
X15755300Y-13623293D02*
X15745777Y-13642341D01*
X15745777Y-13642341D02*
X15736253Y-13651865D01*
X15736253Y-13651865D02*
X15717205Y-13661389D01*
X15717205Y-13661389D02*
X15698157Y-13661389D01*
X15698157Y-13661389D02*
X15679110Y-13651865D01*
X15679110Y-13651865D02*
X15669586Y-13642341D01*
X15669586Y-13642341D02*
X15660062Y-13623293D01*
X15660062Y-13623293D02*
X15650538Y-13585198D01*
X15650538Y-13585198D02*
X15650538Y-13537579D01*
X15650538Y-13537579D02*
X15660062Y-13499484D01*
X15660062Y-13499484D02*
X15669586Y-13480436D01*
X15669586Y-13480436D02*
X15679110Y-13470913D01*
X15679110Y-13470913D02*
X15698157Y-13461389D01*
X15888634Y-13461389D02*
X15907681Y-13461389D01*
X15907681Y-13461389D02*
X15926729Y-13470913D01*
X15926729Y-13470913D02*
X15936253Y-13480436D01*
X15936253Y-13480436D02*
X15945777Y-13499484D01*
X15945777Y-13499484D02*
X15955300Y-13537579D01*
X15955300Y-13537579D02*
X15955300Y-13585198D01*
X15955300Y-13585198D02*
X15945777Y-13623293D01*
X15945777Y-13623293D02*
X15936253Y-13642341D01*
X15936253Y-13642341D02*
X15926729Y-13651865D01*
X15926729Y-13651865D02*
X15907681Y-13661389D01*
X15907681Y-13661389D02*
X15888634Y-13661389D01*
X15888634Y-13661389D02*
X15869586Y-13651865D01*
X15869586Y-13651865D02*
X15860062Y-13642341D01*
X15860062Y-13642341D02*
X15850538Y-13623293D01*
X15850538Y-13623293D02*
X15841015Y-13585198D01*
X15841015Y-13585198D02*
X15841015Y-13537579D01*
X15841015Y-13537579D02*
X15850538Y-13499484D01*
X15850538Y-13499484D02*
X15860062Y-13480436D01*
X15860062Y-13480436D02*
X15869586Y-13470913D01*
X15869586Y-13470913D02*
X15888634Y-13461389D01*
X16041015Y-13661389D02*
X16041015Y-13528055D01*
X16041015Y-13547103D02*
X16050538Y-13537579D01*
X16050538Y-13537579D02*
X16069586Y-13528055D01*
X16069586Y-13528055D02*
X16098158Y-13528055D01*
X16098158Y-13528055D02*
X16117205Y-13537579D01*
X16117205Y-13537579D02*
X16126729Y-13556627D01*
X16126729Y-13556627D02*
X16126729Y-13661389D01*
X16126729Y-13556627D02*
X16136253Y-13537579D01*
X16136253Y-13537579D02*
X16155300Y-13528055D01*
X16155300Y-13528055D02*
X16183872Y-13528055D01*
X16183872Y-13528055D02*
X16202919Y-13537579D01*
X16202919Y-13537579D02*
X16212443Y-13556627D01*
X16212443Y-13556627D02*
X16212443Y-13661389D01*
X16307681Y-13661389D02*
X16307681Y-13528055D01*
X16307681Y-13547103D02*
X16317205Y-13537579D01*
X16317205Y-13537579D02*
X16336253Y-13528055D01*
X16336253Y-13528055D02*
X16364824Y-13528055D01*
X16364824Y-13528055D02*
X16383872Y-13537579D01*
X16383872Y-13537579D02*
X16393396Y-13556627D01*
X16393396Y-13556627D02*
X16393396Y-13661389D01*
X16393396Y-13556627D02*
X16402919Y-13537579D01*
X16402919Y-13537579D02*
X16421967Y-13528055D01*
X16421967Y-13528055D02*
X16450538Y-13528055D01*
X16450538Y-13528055D02*
X16469586Y-13537579D01*
X16469586Y-13537579D02*
X16479110Y-13556627D01*
X16479110Y-13556627D02*
X16479110Y-13661389D01*
X16869586Y-13451865D02*
X16698158Y-13709008D01*
X17126729Y-13461389D02*
X17145777Y-13461389D01*
X17145777Y-13461389D02*
X17164824Y-13470913D01*
X17164824Y-13470913D02*
X17174348Y-13480436D01*
X17174348Y-13480436D02*
X17183872Y-13499484D01*
X17183872Y-13499484D02*
X17193396Y-13537579D01*
X17193396Y-13537579D02*
X17193396Y-13585198D01*
X17193396Y-13585198D02*
X17183872Y-13623293D01*
X17183872Y-13623293D02*
X17174348Y-13642341D01*
X17174348Y-13642341D02*
X17164824Y-13651865D01*
X17164824Y-13651865D02*
X17145777Y-13661389D01*
X17145777Y-13661389D02*
X17126729Y-13661389D01*
X17126729Y-13661389D02*
X17107682Y-13651865D01*
X17107682Y-13651865D02*
X17098158Y-13642341D01*
X17098158Y-13642341D02*
X17088634Y-13623293D01*
X17088634Y-13623293D02*
X17079110Y-13585198D01*
X17079110Y-13585198D02*
X17079110Y-13537579D01*
X17079110Y-13537579D02*
X17088634Y-13499484D01*
X17088634Y-13499484D02*
X17098158Y-13480436D01*
X17098158Y-13480436D02*
X17107682Y-13470913D01*
X17107682Y-13470913D02*
X17126729Y-13461389D01*
X17279110Y-13642341D02*
X17288634Y-13651865D01*
X17288634Y-13651865D02*
X17279110Y-13661389D01*
X17279110Y-13661389D02*
X17269586Y-13651865D01*
X17269586Y-13651865D02*
X17279110Y-13642341D01*
X17279110Y-13642341D02*
X17279110Y-13661389D01*
X17412443Y-13461389D02*
X17431491Y-13461389D01*
X17431491Y-13461389D02*
X17450539Y-13470913D01*
X17450539Y-13470913D02*
X17460063Y-13480436D01*
X17460063Y-13480436D02*
X17469586Y-13499484D01*
X17469586Y-13499484D02*
X17479110Y-13537579D01*
X17479110Y-13537579D02*
X17479110Y-13585198D01*
X17479110Y-13585198D02*
X17469586Y-13623293D01*
X17469586Y-13623293D02*
X17460063Y-13642341D01*
X17460063Y-13642341D02*
X17450539Y-13651865D01*
X17450539Y-13651865D02*
X17431491Y-13661389D01*
X17431491Y-13661389D02*
X17412443Y-13661389D01*
X17412443Y-13661389D02*
X17393396Y-13651865D01*
X17393396Y-13651865D02*
X17383872Y-13642341D01*
X17383872Y-13642341D02*
X17374348Y-13623293D01*
X17374348Y-13623293D02*
X17364824Y-13585198D01*
X17364824Y-13585198D02*
X17364824Y-13537579D01*
X17364824Y-13537579D02*
X17374348Y-13499484D01*
X17374348Y-13499484D02*
X17383872Y-13480436D01*
X17383872Y-13480436D02*
X17393396Y-13470913D01*
X17393396Y-13470913D02*
X17412443Y-13461389D01*
X17650539Y-13528055D02*
X17650539Y-13661389D01*
X17602920Y-13451865D02*
X17555301Y-13594722D01*
X17555301Y-13594722D02*
X17679110Y-13594722D01*
X17736253Y-13461389D02*
X17860063Y-13461389D01*
X17860063Y-13461389D02*
X17793396Y-13537579D01*
X17793396Y-13537579D02*
X17821967Y-13537579D01*
X17821967Y-13537579D02*
X17841015Y-13547103D01*
X17841015Y-13547103D02*
X17850539Y-13556627D01*
X17850539Y-13556627D02*
X17860063Y-13575674D01*
X17860063Y-13575674D02*
X17860063Y-13623293D01*
X17860063Y-13623293D02*
X17850539Y-13642341D01*
X17850539Y-13642341D02*
X17841015Y-13651865D01*
X17841015Y-13651865D02*
X17821967Y-13661389D01*
X17821967Y-13661389D02*
X17764824Y-13661389D01*
X17764824Y-13661389D02*
X17745777Y-13651865D01*
X17745777Y-13651865D02*
X17736253Y-13642341D01*
X17926729Y-13461389D02*
X18050539Y-13461389D01*
X18050539Y-13461389D02*
X17983872Y-13537579D01*
X17983872Y-13537579D02*
X18012444Y-13537579D01*
X18012444Y-13537579D02*
X18031491Y-13547103D01*
X18031491Y-13547103D02*
X18041015Y-13556627D01*
X18041015Y-13556627D02*
X18050539Y-13575674D01*
X18050539Y-13575674D02*
X18050539Y-13623293D01*
X18050539Y-13623293D02*
X18041015Y-13642341D01*
X18041015Y-13642341D02*
X18031491Y-13651865D01*
X18031491Y-13651865D02*
X18012444Y-13661389D01*
X18012444Y-13661389D02*
X17955301Y-13661389D01*
X17955301Y-13661389D02*
X17936253Y-13651865D01*
X17936253Y-13651865D02*
X17926729Y-13642341D01*
X18126729Y-13461389D02*
X18126729Y-13499484D01*
X18202920Y-13461389D02*
X18202920Y-13499484D01*
X18498158Y-13737579D02*
X18488634Y-13728055D01*
X18488634Y-13728055D02*
X18469586Y-13699484D01*
X18469586Y-13699484D02*
X18460063Y-13680436D01*
X18460063Y-13680436D02*
X18450539Y-13651865D01*
X18450539Y-13651865D02*
X18441015Y-13604246D01*
X18441015Y-13604246D02*
X18441015Y-13566151D01*
X18441015Y-13566151D02*
X18450539Y-13518532D01*
X18450539Y-13518532D02*
X18460063Y-13489960D01*
X18460063Y-13489960D02*
X18469586Y-13470913D01*
X18469586Y-13470913D02*
X18488634Y-13442341D01*
X18488634Y-13442341D02*
X18498158Y-13432817D01*
X18679110Y-13661389D02*
X18564825Y-13661389D01*
X18621967Y-13661389D02*
X18621967Y-13461389D01*
X18621967Y-13461389D02*
X18602920Y-13489960D01*
X18602920Y-13489960D02*
X18583872Y-13509008D01*
X18583872Y-13509008D02*
X18564825Y-13518532D01*
X18755301Y-13480436D02*
X18764825Y-13470913D01*
X18764825Y-13470913D02*
X18783872Y-13461389D01*
X18783872Y-13461389D02*
X18831491Y-13461389D01*
X18831491Y-13461389D02*
X18850539Y-13470913D01*
X18850539Y-13470913D02*
X18860063Y-13480436D01*
X18860063Y-13480436D02*
X18869586Y-13499484D01*
X18869586Y-13499484D02*
X18869586Y-13518532D01*
X18869586Y-13518532D02*
X18860063Y-13547103D01*
X18860063Y-13547103D02*
X18745777Y-13661389D01*
X18745777Y-13661389D02*
X18869586Y-13661389D01*
X19107682Y-13661389D02*
X19107682Y-13461389D01*
X19193396Y-13661389D02*
X19193396Y-13556627D01*
X19193396Y-13556627D02*
X19183872Y-13537579D01*
X19183872Y-13537579D02*
X19164825Y-13528055D01*
X19164825Y-13528055D02*
X19136253Y-13528055D01*
X19136253Y-13528055D02*
X19117206Y-13537579D01*
X19117206Y-13537579D02*
X19107682Y-13547103D01*
X19317206Y-13661389D02*
X19298158Y-13651865D01*
X19298158Y-13651865D02*
X19288634Y-13642341D01*
X19288634Y-13642341D02*
X19279110Y-13623293D01*
X19279110Y-13623293D02*
X19279110Y-13566151D01*
X19279110Y-13566151D02*
X19288634Y-13547103D01*
X19288634Y-13547103D02*
X19298158Y-13537579D01*
X19298158Y-13537579D02*
X19317206Y-13528055D01*
X19317206Y-13528055D02*
X19345777Y-13528055D01*
X19345777Y-13528055D02*
X19364825Y-13537579D01*
X19364825Y-13537579D02*
X19374348Y-13547103D01*
X19374348Y-13547103D02*
X19383872Y-13566151D01*
X19383872Y-13566151D02*
X19383872Y-13623293D01*
X19383872Y-13623293D02*
X19374348Y-13642341D01*
X19374348Y-13642341D02*
X19364825Y-13651865D01*
X19364825Y-13651865D02*
X19345777Y-13661389D01*
X19345777Y-13661389D02*
X19317206Y-13661389D01*
X19498158Y-13661389D02*
X19479110Y-13651865D01*
X19479110Y-13651865D02*
X19469587Y-13632817D01*
X19469587Y-13632817D02*
X19469587Y-13461389D01*
X19650539Y-13651865D02*
X19631491Y-13661389D01*
X19631491Y-13661389D02*
X19593396Y-13661389D01*
X19593396Y-13661389D02*
X19574348Y-13651865D01*
X19574348Y-13651865D02*
X19564825Y-13632817D01*
X19564825Y-13632817D02*
X19564825Y-13556627D01*
X19564825Y-13556627D02*
X19574348Y-13537579D01*
X19574348Y-13537579D02*
X19593396Y-13528055D01*
X19593396Y-13528055D02*
X19631491Y-13528055D01*
X19631491Y-13528055D02*
X19650539Y-13537579D01*
X19650539Y-13537579D02*
X19660063Y-13556627D01*
X19660063Y-13556627D02*
X19660063Y-13575674D01*
X19660063Y-13575674D02*
X19564825Y-13594722D01*
X19736253Y-13651865D02*
X19755301Y-13661389D01*
X19755301Y-13661389D02*
X19793396Y-13661389D01*
X19793396Y-13661389D02*
X19812444Y-13651865D01*
X19812444Y-13651865D02*
X19821968Y-13632817D01*
X19821968Y-13632817D02*
X19821968Y-13623293D01*
X19821968Y-13623293D02*
X19812444Y-13604246D01*
X19812444Y-13604246D02*
X19793396Y-13594722D01*
X19793396Y-13594722D02*
X19764825Y-13594722D01*
X19764825Y-13594722D02*
X19745777Y-13585198D01*
X19745777Y-13585198D02*
X19736253Y-13566151D01*
X19736253Y-13566151D02*
X19736253Y-13556627D01*
X19736253Y-13556627D02*
X19745777Y-13537579D01*
X19745777Y-13537579D02*
X19764825Y-13528055D01*
X19764825Y-13528055D02*
X19793396Y-13528055D01*
X19793396Y-13528055D02*
X19812444Y-13537579D01*
X19888634Y-13737579D02*
X19898158Y-13728055D01*
X19898158Y-13728055D02*
X19917206Y-13699484D01*
X19917206Y-13699484D02*
X19926729Y-13680436D01*
X19926729Y-13680436D02*
X19936253Y-13651865D01*
X19936253Y-13651865D02*
X19945777Y-13604246D01*
X19945777Y-13604246D02*
X19945777Y-13566151D01*
X19945777Y-13566151D02*
X19936253Y-13518532D01*
X19936253Y-13518532D02*
X19926729Y-13489960D01*
X19926729Y-13489960D02*
X19917206Y-13470913D01*
X19917206Y-13470913D02*
X19898158Y-13442341D01*
X19898158Y-13442341D02*
X19888634Y-13432817D01*
M02*
